  0
SECTION
  2
HEADER
  9
$ACADVER
  1
AC1015
  9
$ACADMAINTVER
 70
     6
  9
$DWGCODEPAGE
  3
ANSI_1252
  9
$INSBASE
 10
0.0
 20
0.0
 30
0.0
  9
$EXTMIN
 10
-120.8908794788
 20
-53.8013029316
 30
0.0
  9
$EXTMAX
 10
78.1091205212
 20
91.1986970684
 30
0.0
  9
$LIMMIN
 10
0.0
 20
0.0
  9
$LIMMAX
 10
420.0
 20
297.0
  9
$ORTHOMODE
 70
     0
  9
$REGENMODE
 70
     1
  9
$FILLMODE
 70
     1
  9
$QTEXTMODE
 70
     0
  9
$MIRRTEXT
 70
     1
  9
$LTSCALE
 40
1.0
  9
$ATTMODE
 70
     1
  9
$TEXTSIZE
 40
3.175
  9
$TRACEWID
 40
1.0
  9
$TEXTSTYLE
  7
Standard
  9
$CLAYER
  8
0
  9
$CELTYPE
  6
ByLayer
  9
$CECOLOR
 62
   256
  9
$CELTSCALE
 40
1.0
  9
$DISPSILH
 70
     0
  9
$DIMSCALE
 40
1.0
  9
$DIMASZ
 40
3.302
  9
$DIMEXO
 40
0.0
  9
$DIMDLI
 40
3.75
  9
$DIMRND
 40
0.0
  9
$DIMDLE
 40
0.0
  9
$DIMEXE
 40
3.175
  9
$DIMTP
 40
0.0
  9
$DIMTM
 40
0.0
  9
$DIMTXT
 40
3.175
  9
$DIMCEN
 40
2.5
  9
$DIMTSZ
 40
0.0
  9
$DIMTOL
 70
     0
  9
$DIMLIM
 70
     0
  9
$DIMTIH
 70
     1
  9
$DIMTOH
 70
     1
  9
$DIMSE1
 70
     0
  9
$DIMSE2
 70
     0
  9
$DIMTAD
 70
     0
  9
$DIMZIN
 70
     1
  9
$DIMBLK
  1

  9
$DIMASO
 70
     1
  9
$DIMSHO
 70
     1
  9
$DIMPOST
  1

  9
$DIMAPOST
  1

  9
$DIMALT
 70
     0
  9
$DIMALTD
 70
     3
  9
$DIMALTF
 40
0.0393700787
  9
$DIMLFAC
 40
1.0
  9
$DIMTOFL
 70
     1
  9
$DIMTVP
 40
0.0
  9
$DIMTIX
 70
     0
  9
$DIMSOXD
 70
     0
  9
$DIMSAH
 70
     0
  9
$DIMBLK1
  1

  9
$DIMBLK2
  1

  9
$DIMSTYLE
  2
ISO-25
  9
$DIMCLRD
 70
     0
  9
$DIMCLRE
 70
     0
  9
$DIMCLRT
 70
     0
  9
$DIMTFAC
 40
1.0
  9
$DIMGAP
 40
1.524
  9
$DIMJUST
 70
     0
  9
$DIMSD1
 70
     0
  9
$DIMSD2
 70
     0
  9
$DIMTOLJ
 70
     0
  9
$DIMTZIN
 70
     1
  9
$DIMALTZ
 70
     0
  9
$DIMALTTZ
 70
     0
  9
$DIMUPT
 70
     0
  9
$DIMDEC
 70
     2
  9
$DIMTDEC
 70
     2
  9
$DIMALTU
 70
     2
  9
$DIMALTTD
 70
     3
  9
$DIMTXSTY
  7
Standard
  9
$DIMAUNIT
 70
     0
  9
$DIMADEC
 70
     2
  9
$DIMALTRND
 40
0.0
  9
$DIMAZIN
 70
     0
  9
$DIMDSEP
 70
    44
  9
$DIMATFIT
 70
     3
  9
$DIMFRAC
 70
     0
  9
$DIMLDRBLK
  1

  9
$DIMLUNIT
 70
     2
  9
$DIMLWD
 70
    -2
  9
$DIMLWE
 70
    -2
  9
$DIMTMOVE
 70
     0
  9
$LUNITS
 70
     2
  9
$LUPREC
 70
     2
  9
$SKETCHINC
 40
1.0
  9
$FILLETRAD
 40
0.0
  9
$AUNITS
 70
     0
  9
$AUPREC
 70
     2
  9
$MENU
  1
.
  9
$ELEVATION
 40
0.0
  9
$PELEVATION
 40
0.0
  9
$THICKNESS
 40
0.0
  9
$LIMCHECK
 70
     0
  9
$CHAMFERA
 40
0.0
  9
$CHAMFERB
 40
0.0
  9
$CHAMFERC
 40
0.0
  9
$CHAMFERD
 40
0.0
  9
$SKPOLY
 70
     0
  9
$TDCREATE
 40
2461106.970737338
  9
$TDUCREATE
 40
2461106.845737338
  9
$TDUPDATE
 40
2461106.970776158
  9
$TDUUPDATE
 40
2461106.845776158
  9
$TDINDWG
 40
0.0000000116
  9
$TDUSRTIMER
 40
0.0000000116
  9
$USRTIMER
 70
     1
  9
$ANGBASE
 50
0.0
  9
$ANGDIR
 70
     0
  9
$PDMODE
 70
     0
  9
$PDSIZE
 40
-1.0
  9
$PLINEWID
 40
0.0
  9
$SPLFRAME
 70
     0
  9
$SPLINETYPE
 70
     6
  9
$SPLINESEGS
 70
     8
  9
$HANDSEED
  5
10E
  9
$SURFTAB1
 70
     6
  9
$SURFTAB2
 70
     6
  9
$SURFTYPE
 70
     6
  9
$SURFU
 70
     6
  9
$SURFV
 70
     6
  9
$UCSBASE
  2

  9
$UCSNAME
  2

  9
$UCSORG
 10
0.0
 20
0.0
 30
0.0
  9
$UCSXDIR
 10
1.0
 20
0.0
 30
0.0
  9
$UCSYDIR
 10
0.0
 20
1.0
 30
0.0
  9
$UCSORTHOREF
  2

  9
$UCSORTHOVIEW
 70
     0
  9
$UCSORGTOP
 10
0.0
 20
0.0
 30
0.0
  9
$UCSORGBOTTOM
 10
0.0
 20
0.0
 30
0.0
  9
$UCSORGLEFT
 10
0.0
 20
0.0
 30
0.0
  9
$UCSORGRIGHT
 10
0.0
 20
0.0
 30
0.0
  9
$UCSORGFRONT
 10
0.0
 20
0.0
 30
0.0
  9
$UCSORGBACK
 10
0.0
 20
0.0
 30
0.0
  9
$PUCSBASE
  2

  9
$PUCSNAME
  2

  9
$PUCSORG
 10
0.0
 20
0.0
 30
0.0
  9
$PUCSXDIR
 10
1.0
 20
0.0
 30
0.0
  9
$PUCSYDIR
 10
0.0
 20
1.0
 30
0.0
  9
$PUCSORTHOREF
  2

  9
$PUCSORTHOVIEW
 70
     0
  9
$PUCSORGTOP
 10
0.0
 20
0.0
 30
0.0
  9
$PUCSORGBOTTOM
 10
0.0
 20
0.0
 30
0.0
  9
$PUCSORGLEFT
 10
0.0
 20
0.0
 30
0.0
  9
$PUCSORGRIGHT
 10
0.0
 20
0.0
 30
0.0
  9
$PUCSORGFRONT
 10
0.0
 20
0.0
 30
0.0
  9
$PUCSORGBACK
 10
0.0
 20
0.0
 30
0.0
  9
$USERI1
 70
     0
  9
$USERI2
 70
     0
  9
$USERI3
 70
     0
  9
$USERI4
 70
     0
  9
$USERI5
 70
     0
  9
$USERR1
 40
0.0
  9
$USERR2
 40
0.0
  9
$USERR3
 40
0.0
  9
$USERR4
 40
0.0
  9
$USERR5
 40
0.0
  9
$WORLDVIEW
 70
     1
  9
$SHADEDGE
 70
     3
  9
$SHADEDIF
 70
    70
  9
$TILEMODE
 70
     1
  9
$MAXACTVP
 70
    64
  9
$PINSBASE
 10
0.0
 20
0.0
 30
0.0
  9
$PLIMCHECK
 70
     0
  9
$PEXTMIN
 10
1.0000000000E+20
 20
1.0000000000E+20
 30
1.0000000000E+20
  9
$PEXTMAX
 10
-1.0000000000E+20
 20
-1.0000000000E+20
 30
-1.0000000000E+20
  9
$PLIMMIN
 10
0.0
 20
0.0
  9
$PLIMMAX
 10
420.0
 20
297.0
  9
$UNITMODE
 70
     0
  9
$VISRETAIN
 70
     1
  9
$PLINEGEN
 70
     0
  9
$PSLTSCALE
 70
     1
  9
$TREEDEPTH
 70
  3020
  9
$CMLSTYLE
  2
Standard
  9
$CMLJUST
 70
     0
  9
$CMLSCALE
 40
20.0
  9
$PROXYGRAPHICS
 70
     1
  9
$MEASUREMENT
 70
     1
  9
$CELWEIGHT
370
    -1
  9
$ENDCAPS
280
     0
  9
$JOINSTYLE
280
     0
  9
$LWDISPLAY
290
     1
  9
$INSUNITS
 70
     4
  9
$HYPERLINKBASE
  1

  9
$STYLESHEET
  1

  9
$XEDIT
290
     1
  9
$CEPSNTYPE
380
     0
  9
$PSTYLEMODE
290
     1
  9
$FINGERPRINTGUID
  2
{a94b7090-2c84-4668-ac52-be64a2c0efa5}
  9
$VERSIONGUID
  2
{FAEB1C32-E019-11D5-929B-00C0DF256EC4}
  9
$EXTNAMES
290
     1
  9
$PSVPSCALE
 40
0.0
  9
$OLESTARTUP
290
     0
  0
ENDSEC
  0
SECTION
  2
CLASSES
  0
CLASS
  1
ACDBDICTIONARYWDFLT
  2
AcDbDictionaryWithDefault
  3
ObjectDBX Classes
 90
        0
280
     0
281
     0
  0
CLASS
  1
VISUALSTYLE
  2
AcDbVisualStyle
  3
ObjectDBX Classes
 90
     4095
280
     0
281
     0
  0
CLASS
  1
MATERIAL
  2
AcDbMaterial
  3
ObjectDBX Classes
 90
     1153
280
     0
281
     0
  0
CLASS
  1
SCALE
  2
AcDbScale
  3
ObjectDBX Classes
 90
     1153
280
     0
281
     0
  0
CLASS
  1
TABLESTYLE
  2
AcDbTableStyle
  3
ObjectDBX Classes
 90
     4095
280
     0
281
     0
  0
CLASS
  1
MLEADERSTYLE
  2
AcDbMLeaderStyle
  3
ACDB_MLEADERSTYLE_CLASS
 90
     4095
280
     0
281
     0
  0
CLASS
  1
SUN
  2
AcDbSun
  3
SCENEOE
 90
     1153
280
     0
281
     0
  0
CLASS
  1
ACDBPLACEHOLDER
  2
AcDbPlaceHolder
  3
ObjectDBX Classes
 90
        0
280
     0
281
     0
  0
CLASS
  1
LAYOUT
  2
AcDbLayout
  3
ObjectDBX Classes
 90
        0
280
     0
281
     0
  0
ENDSEC
  0
SECTION
  2
TABLES
  0
TABLE
  2
VPORT
  5
8
330
0
100
AcDbSymbolTable
 70
     1
  0
VPORT
  5
29
330
8
100
AcDbSymbolTableRecord
100
AcDbViewportTableRecord
  2
*Active
 70
     0
 10
0.0
 20
0.0
 11
1.0
 21
1.0
 12
-21.3908794788
 22
18.6986970684
 13
0.0
 23
0.0
 14
10.0
 24
10.0
 15
10.0
 25
10.0
 16
0.0
 26
0.0
 36
1.0
 17
0.0
 27
0.0
 37
0.0
 40
147.9
 41
1.3724137931
 42
50.0
 43
0.0
 44
0.0
 50
0.0
 51
0.0
 71
     0
 72
   100
 73
     1
 74
     3
 75
     0
 76
     0
 77
     0
 78
     0
281
     0
 65
     1
110
0.0
120
0.0
130
0.0
111
1.0
121
0.0
131
0.0
112
0.0
122
1.0
132
0.0
 79
     0
146
0.0
  0
ENDTAB
  0
TABLE
  2
LTYPE
  5
5
330
0
100
AcDbSymbolTable
 70
     6
  0
LTYPE
  5
14
330
5
100
AcDbSymbolTableRecord
100
AcDbLinetypeTableRecord
  2
ByBlock
 70
     0
  3

 72
    65
 73
     0
 40
0.0
  0
LTYPE
  5
15
330
5
100
AcDbSymbolTableRecord
100
AcDbLinetypeTableRecord
  2
ByLayer
 70
     0
  3

 72
    65
 73
     0
 40
0.0
  0
LTYPE
  5
16
330
5
100
AcDbSymbolTableRecord
100
AcDbLinetypeTableRecord
  2
Continuous
 70
     0
  3
Solid line
 72
    65
 73
     0
 40
0.0
  0
LTYPE
  5
5E
330
5
100
AcDbSymbolTableRecord
100
AcDbLinetypeTableRecord
  2
HIDDEN
 70
     0
  3
Hidden __ __ __ __ __ __ __ __ __ __ __ __ __ __
 72
    65
 73
     2
 40
1.905
 49
1.27
 74
     0
 49
-0.635
 74
     0
  0
LTYPE
  5
5F
330
5
100
AcDbSymbolTableRecord
100
AcDbLinetypeTableRecord
  2
PHANTOM
 70
     0
  3
Phantom ______  __  __  ______  __  __  ______
 72
    65
 73
     6
 40
12.7
 49
6.35
 74
     0
 49
-1.27
 74
     0
 49
1.27
 74
     0
 49
-1.27
 74
     0
 49
1.27
 74
     0
 49
-1.27
 74
     0
  0
LTYPE
  5
60
330
5
100
AcDbSymbolTableRecord
100
AcDbLinetypeTableRecord
  2
CENTER
 70
     0
  3
Center ____ _ ____ _ ____ _ ____ _ ____ _ ____
 72
    65
 73
     4
 40
10.16
 49
6.35
 74
     0
 49
-1.27
 74
     0
 49
1.27
 74
     0
 49
-1.27
 74
     0
  0
LTYPE
  5
61
330
5
100
AcDbSymbolTableRecord
100
AcDbLinetypeTableRecord
  2
CENTERX2
 70
     0
  3
Center (2x) ________  __  ________  __  _____
 72
    65
 73
     4
 40
20.32
 49
12.7
 74
     0
 49
-2.54
 74
     0
 49
2.54
 74
     0
 49
-2.54
 74
     0
  0
LTYPE
  5
62
330
5
100
AcDbSymbolTableRecord
100
AcDbLinetypeTableRecord
  2
DOT2
 70
     0
  3
Dot (.5x) ........................................
 72
    65
 73
     2
 40
0.635
 49
0.0
 74
     0
 49
-0.635
 74
     0
  0
ENDTAB
  0
TABLE
  2
LAYER
  5
2
330
0
100
AcDbSymbolTable
 70
     1
  0
LAYER
  5
10
330
2
100
AcDbSymbolTableRecord
100
AcDbLayerTableRecord
  2
0
 70
     0
 62
     7
  6
Continuous
370
    -3
390
F
  0
ENDTAB
  0
TABLE
  2
STYLE
  5
3
330
0
100
AcDbSymbolTable
 70
     1
  0
STYLE
  5
11
330
3
100
AcDbSymbolTableRecord
100
AcDbTextStyleTableRecord
  2
Standard
 70
     0
 40
0.0
 41
1.0
 50
0.0
 71
     0
 42
3.175
  3
txt
  4

  0
ENDTAB
  0
TABLE
  2
VIEW
  5
6
330
0
100
AcDbSymbolTable
 70
     0
  0
ENDTAB
  0
TABLE
  2
UCS
  5
7
330
0
100
AcDbSymbolTable
 70
     0
  0
ENDTAB
  0
TABLE
  2
APPID
  5
9
330
0
100
AcDbSymbolTable
 70
     1
  0
APPID
  5
12
330
9
100
AcDbSymbolTableRecord
100
AcDbRegAppTableRecord
  2
ACAD
 70
     0
  0
ENDTAB
  0
TABLE
  2
DIMSTYLE
  5
A
330
0
100
AcDbSymbolTable
 70
     1
100
AcDbDimStyleTable
  0
DIMSTYLE
105
27
330
A
100
AcDbSymbolTableRecord
100
AcDbDimStyleTableRecord
  2
ISO-25
 70
     0
 41
2.5
 42
0.625
 43
3.75
 44
1.25
 73
     0
 74
     0
 77
     1
 78
     8
140
2.5
141
2.5
143
0.0393700787
147
0.625
171
     3
172
     1
178
     0
271
     2
272
     2
274
     3
278
    44
283
     0
284
     8
340
11
  0
ENDTAB
  0
TABLE
  2
BLOCK_RECORD
  5
1
330
0
100
AcDbSymbolTable
 70
     1
  0
BLOCK_RECORD
  5
1F
330
1
100
AcDbSymbolTableRecord
100
AcDbBlockTableRecord
  2
*Model_Space
340
22
  0
BLOCK_RECORD
  5
1B
330
1
100
AcDbSymbolTableRecord
100
AcDbBlockTableRecord
  2
*Paper_Space
340
1E
  0
BLOCK_RECORD
  5
23
330
1
100
AcDbSymbolTableRecord
100
AcDbBlockTableRecord
  2
*Paper_Space0
340
26
  0
ENDTAB
  0
ENDSEC
  0
SECTION
  2
BLOCKS
  0
BLOCK
  5
20
330
1F
100
AcDbEntity
  8
0
100
AcDbBlockBegin
  2
*Model_Space
 70
     0
 10
0.0
 20
0.0
 30
0.0
  3
*Model_Space
  1

  0
ENDBLK
  5
21
330
1F
100
AcDbEntity
  8
0
100
AcDbBlockEnd
  0
BLOCK
  5
1C
330
1B
100
AcDbEntity
 67
     1
  8
0
100
AcDbBlockBegin
  2
*Paper_Space
 70
     0
 10
0.0
 20
0.0
 30
0.0
  3
*Paper_Space
  1

  0
ENDBLK
  5
1D
330
1B
100
AcDbEntity
 67
     1
  8
0
100
AcDbBlockEnd
  0
BLOCK
  5
24
330
23
100
AcDbEntity
  8
0
100
AcDbBlockBegin
  2
*Paper_Space0
 70
     0
 10
0.0
 20
0.0
 30
0.0
  3
*Paper_Space0
  1

  0
ENDBLK
  5
25
330
23
100
AcDbEntity
  8
0
100
AcDbBlockEnd
  0
ENDSEC
  0
SECTION
  2
ENTITIES
  0
LWPOLYLINE
  5
63
330
1F
100
AcDbEntity
  8
0
  6
Continuous
 62
     7
100
AcDbPolyline
 90
      224
 70
   128
 43
0.0
 10
-92.066526413
 20
-40.5713620532
 10
-92.0665551545
 20
-40.7561171208
 10
-92.0665551545
 20
-40.7561171208
 10
-100.5125011004
 20
-40.7561171208
 10
-100.5125011004
 20
-40.7561171208
 10
-100.5125011004
 20
-40.5713620532
 10
-100.5125011004
 20
-40.5713620532
 10
-99.768202114
 20
-40.4869025938
 10
-99.0714115734
 20
-40.3971644181
 10
-98.4115720464
 20
-40.3074262424
 10
-97.7939622491
 20
-40.2176880667
 10
-97.2238608977
 20
-40.1226711748
 10
-96.6907105599
 20
-40.0223755667
 10
-96.1997899518
 20
-39.9220799586
 10
-95.7510990734
 20
-39.8165056343
 10
-95.7510990734
 20
-39.8165056343
 10
-95.1757190059
 20
-39.6528654316
 10
-94.6320112356
 20
-39.4733890803
 10
-94.130533195
 20
-39.272797864
 10
-93.6607274518
 20
-39.051091783
 10
-93.2331514383
 20
-38.8135495532
 10
-92.8530838707
 20
-38.5601711748
 10
-92.5258034653
 20
-38.296235364
 10
-92.2460315059
 20
-38.0164634046
 10
-92.0190467086
 20
-37.7261340127
 10
-91.8554065059
 20
-37.4358046208
 10
-91.760389614
 20
-37.1454752289
 10
-91.7287173167
 20
-36.855145837
 10
-91.7287173167
 20
-36.855145837
 10
-91.7551108977
 20
-36.6439971884
 10
-91.8290129248
 20
-36.4381272559
 10
-91.955702114
 20
-36.2533721884
 10
-92.1351784653
 20
-36.073895837
 10
-92.3621632626
 20
-35.9102556343
 10
-92.6313777896
 20
-35.757172864
 10
-92.9533794788
 20
-35.6199262424
 10
-93.322889614
 20
-35.4932370532
 10
-93.322889614
 20
-35.4932370532
 10
-93.9193845464
 20
-35.340154283
 10
-94.5897815059
 20
-35.2240225262
 10
-95.276014614
 20
-35.1501204992
 10
-95.9411328572
 20
-35.1237269181
 10
-95.9411328572
 20
-35.1237269181
 10
-96.5323490734
 20
-35.1395630667
 10
-97.0813355599
 20
-35.1923502289
 10
-97.5933710329
 20
-35.2768096884
 10
-98.0631767761
 20
-35.3982201613
 10
-98.0631767761
 20
-35.3982201613
 10
-98.4960315059
 20
-35.5513029316
 10
-98.9130500869
 20
-35.7624515803
 10
-99.3089538032
 20
-36.0316661073
 10
-99.7048575194
 20
-36.3695039451
 10
-99.9107274518
 20
-36.5753738775
 10
-100.1324335329
 20
-36.8129161073
 10
-100.3858119113
 20
-37.0926880667
 10
-100.6550264383
 20
-37.4094110397
 10
-100.6550264383
 20
-37.4094110397
 10
-100.8081092086
 20
-37.5677725262
 10
-100.8820112356
 20
-37.6680681343
 10
-100.8820112356
 20
-37.6680681343
 10
-101.0931598842
 20
-37.9267252289
 10
-101.0931598842
 20
-37.9267252289
 10
-101.4468338707
 20
-38.3384650938
 10
-101.4468338707
 20
-38.3384650938
 10
-101.8849673167
 20
-38.8241069857
 10
-102.2914284653
 20
-39.2411255667
 10
-102.6767747491
 20
-39.589520837
 10
-103.0357274518
 20
-39.8640140803
 10
-103.4052375869
 20
-40.0962775938
 10
-103.8328136004
 20
-40.3074262424
 10
-104.3131767761
 20
-40.5027387424
 10
-104.8516058302
 20
-40.6822150938
 10
-104.8516058302
 20
-40.6822150938
 10
-105.2844605599
 20
-40.808904283
 10
-105.7489875869
 20
-40.9144786073
 10
-106.2557443437
 20
-41.0147742154
 10
-106.7941733977
 20
-41.0939549586
 10
-107.9449335329
 20
-41.199529283
 10
-109.1907105599
 20
-41.2364802965
 10
-109.1907105599
 20
-41.2364802965
 10
-110.462881168
 20
-41.1942505667
 10
-111.7403304923
 20
-41.0728400938
 10
-112.3579402896
 20
-40.9831019181
 10
-112.9385990734
 20
-40.8722488775
 10
-113.4823068437
 20
-40.7508384046
 10
-113.9890636004
 20
-40.6083130667
 10
-113.9890636004
 20
-40.6083130667
 10
-114.6277882626
 20
-40.4024431343
 10
-115.1873321815
 20
-40.1701796208
 10
-115.6571379248
 20
-39.9220799586
 10
-116.0424842086
 20
-39.6475867154
 10
-116.3433710329
 20
-39.3519786073
 10
-116.5545196815
 20
-39.0299769181
 10
-116.6864875869
 20
-38.6974177965
 10
-116.7287173167
 20
-38.3384650938
 10
-116.7287173167
 20
-38.3384650938
 10
-116.7076024518
 20
-38.0850867154
 10
-116.638979141
 20
-37.8422657694
 10
-116.5281261004
 20
-37.6100022559
 10
-116.3750433302
 20
-37.3882961748
 10
-116.1586159653
 20
-37.1560326613
 10
-115.8682865734
 20
-36.902654283
 10
-115.5040551545
 20
-36.6281610397
 10
-115.0659217086
 20
-36.3325529316
 10
-115.0659217086
 20
-36.3325529316
 10
-114.8019858977
 20
-36.1319617154
 10
-114.5802798167
 20
-35.9577640803
 10
-114.4113608977
 20
-35.8099600262
 10
-114.2846717086
 20
-35.6885495532
 10
-114.1263102221
 20
-35.4721221884
 10
-114.0735230599
 20
-35.2715309721
 10
-114.0735230599
 20
-35.2715309721
 10
-114.1157527896
 20
-35.0920546208
 10
-114.247720695
 20
-34.9231357019
 10
-114.4641480599
 20
-34.7753316478
 10
-114.7650348842
 20
-34.6380850262
 10
-115.1451024518
 20
-34.5166745532
 10
-115.5990720464
 20
-34.4163789451
 10
-116.126943668
 20
-34.3424769181
 10
-116.7287173167
 20
-34.2896897559
 10
-116.7287173167
 20
-34.2896897559
 10
-116.7287173167
 20
-34.1049346884
 10
-116.7287173167
 20
-34.1049346884
 10
-105.2422308302
 20
-34.1049346884
 10
-105.2422308302
 20
-34.1049346884
 10
-105.2422308302
 20
-34.2896897559
 10
-105.2422308302
 20
-34.2896897559
 10
-106.7202713707
 20
-34.3794279316
 10
-108.1296886004
 20
-34.5272319857
 10
-109.4704825194
 20
-34.7436593505
 10
-110.7426531275
 20
-35.02343131
 10
-110.7426531275
 20
-35.02343131
 10
-112.1362342086
 20
-35.4510073235
 10
-113.4347983977
 20
-35.9788789451
 10
-114.0207358977
 20
-36.269208337
 10
-114.5380500869
 20
-36.5648164451
 10
-114.9867409653
 20
-36.8657032694
 10
-115.3668085329
 20
-37.17186881
 10
-115.6676953572
 20
-37.4780343505
 10
-115.8788440059
 20
-37.7789211748
 10
-116.0108119113
 20
-38.074529283
 10
-116.053041641
 20
-38.3648586748
 10
-116.053041641
 20
-38.3648586748
 10
-116.0160906275
 20
-38.612958337
 10
-115.9105163032
 20
-38.855779283
 10
-115.736318668
 20
-39.0827640803
 10
-115.4882190059
 20
-39.3044701613
 10
-115.1767747491
 20
-39.5050613775
 10
-114.8125433302
 20
-39.6792590127
 10
-114.3955247491
 20
-39.832341783
 10
-113.9204402896
 20
-39.9643096884
 10
-113.3978473842
 20
-40.0698840127
 10
-112.8488608977
 20
-40.1437860397
 10
-112.2629233977
 20
-40.1860157694
 10
-111.6453136004
 20
-40.2018519181
 10
-111.6453136004
 20
-40.2018519181
 10
-110.9907527896
 20
-40.1807370532
 10
-110.3678642761
 20
-40.1226711748
 10
-109.7819267761
 20
-40.0223755667
 10
-109.2276615734
 20
-39.8798502289
 10
-109.2276615734
 20
-39.8798502289
 10
-108.7684132626
 20
-39.71093131
 10
-108.3461159653
 20
-39.4997826613
 10
-107.9343761004
 20
-39.2305681343
 10
-107.5173575194
 20
-38.8927302965
 10
-107.2956514383
 20
-38.686860364
 10
-107.0528304923
 20
-38.4493181343
 10
-106.7888946815
 20
-38.1748248911
 10
-106.5091227221
 20
-37.8686593505
 10
-106.5091227221
 20
-37.8686593505
 10
-106.0340382626
 20
-37.3407877289
 10
-106.0340382626
 20
-37.3407877289
 10
-105.506166641
 20
-36.8023586748
 10
-105.041639614
 20
-36.3483890803
 10
-104.6404571815
 20
-35.9894363775
 10
-104.3026193437
 20
-35.7202218505
 10
-104.3026193437
 20
-35.7202218505
 10
-103.6480585329
 20
-35.2451373911
 10
-102.9987764383
 20
-34.8861846884
 10
-102.650381168
 20
-34.7383806343
 10
-102.2544774518
 20
-34.6011340127
 10
-101.8216227221
 20
-34.4744448235
 10
-101.3412595464
 20
-34.3583130667
 10
-101.3412595464
 20
-34.3583130667
 10
-100.6180754248
 20
-34.2157877289
 10
-99.8526615734
 20
-34.1102134046
 10
-99.060854141
 20
-34.0521475262
 10
-98.2268169788
 20
-34.0310326613
 10
-98.2268169788
 20
-34.0310326613
 10
-97.2238608977
 20
-34.0521475262
 10
-96.2736919788
 20
-34.120770837
 10
-95.3763102221
 20
-34.2369025938
 10
-94.5317156275
 20
-34.3952640803
 10
-93.7557443437
 20
-34.5958552965
 10
-93.0747899518
 20
-34.8333975262
 10
-92.4782950194
 20
-35.1026120532
 10
-91.9768169788
 20
-35.41405631
 10
-91.5703558302
 20
-35.7518941478
 10
-91.2853051545
 20
-36.1055681343
 10
-91.1111075194
 20
-36.4750782694
 10
-91.053041641
 20
-36.8657032694
 10
-91.053041641
 20
-36.8657032694
 10
-91.0899926545
 20
-37.1665900938
 10
-91.1955669788
 20
-37.4727556343
 10
-91.3750433302
 20
-37.7789211748
 10
-91.6231429923
 20
-38.0903654316
 10
-91.9451446815
 20
-38.4070884046
 10
-92.3410483977
 20
-38.7238113775
 10
-92.8055754248
 20
-39.0405343505
 10
-93.3387257626
 20
-39.3625360397
 10
-93.3387257626
 20
-39.3625360397
 10
-93.6712848842
 20
-39.5736846884
 10
-93.9035483977
 20
-39.7426036073
 10
-94.0460737356
 20
-39.8798502289
 10
-94.0935821815
 20
-39.980145837
 10
-94.0935821815
 20
-39.980145837
 10
-94.0619098842
 20
-40.0804414451
 10
-93.9668929923
 20
-40.1701796208
 10
-93.8085315059
 20
-40.2546390803
 10
-93.5868254248
 20
-40.3338198235
 10
-93.3017747491
 20
-40.4024431343
 10
-92.9533794788
 20
-40.4657877289
 10
-92.541639614
 20
-40.5238536073
 10
-92.0665551545
 20
-40.5713620532
  0
LWPOLYLINE
  5
64
330
1F
100
AcDbEntity
  8
0
  6
Continuous
 62
     7
100
AcDbPolyline
 90
      138
 70
   128
 43
0.0
 10
-91.3908481598
 20
-21.8488113775
 10
-91.3908794788
 20
-27.0325107019
 10
-91.3908794788
 20
-27.0325107019
 10
-92.0665551545
 20
-27.0325107019
 10
-92.0665551545
 20
-27.0325107019
 10
-92.0665551545
 20
-26.4676880667
 10
-92.0665551545
 20
-26.4676880667
 10
-92.1351784653
 20
-26.1615225262
 10
-92.346327114
 20
-25.9028654316
 10
-92.7000011004
 20
-25.6811593505
 10
-93.1909217086
 20
-25.5016829992
 10
-93.8296463707
 20
-25.3591576613
 10
-94.6161750869
 20
-25.2588620532
 10
-95.5505078572
 20
-25.2007961748
 10
-96.6379233977
 20
-25.17968131
 10
-96.6379233977
 20
-25.17968131
 10
-109.3913017761
 20
-25.17968131
 10
-109.3913017761
 20
-25.17968131
 10
-110.4417663032
 20
-25.1955174586
 10
-111.4183288032
 20
-25.2483046208
 10
-112.3157105599
 20
-25.3380427965
 10
-113.1391902896
 20
-25.4647319857
 10
-113.8729318437
 20
-25.6230934721
 10
-114.5222139383
 20
-25.8131272559
 10
-115.076479141
 20
-26.0295546208
 10
-115.5462848842
 20
-26.2829329992
 10
-115.9157950194
 20
-26.5627049586
 10
-116.1797308302
 20
-26.863591783
 10
-116.3380923167
 20
-27.1961509046
 10
-116.3908794788
 20
-27.5498248911
 10
-116.3908794788
 20
-27.5498248911
 10
-116.3486497491
 20
-27.866547864
 10
-116.2272392761
 20
-28.1727134046
 10
-116.0213693437
 20
-28.4683215127
 10
-115.736318668
 20
-28.7533721884
 10
-115.3773659653
 20
-29.0173079992
 10
-114.955068668
 20
-29.2548502289
 10
-114.4694267761
 20
-29.4659988775
 10
-113.9257190059
 20
-29.6454752289
 10
-113.9257190059
 20
-29.6454752289
 10
-113.3503389383
 20
-29.7880005667
 10
-112.7168929923
 20
-29.9094110397
 10
-112.0306598842
 20
-30.0097066478
 10
-111.2863608977
 20
-30.0941661073
 10
-110.4945534653
 20
-30.1627894181
 10
-109.6394014383
 20
-30.210297864
 10
-108.7314622491
 20
-30.2366914451
 10
-107.7707358977
 20
-30.2472488775
 10
-107.7707358977
 20
-30.2472488775
 10
-98.7758034653
 20
-30.2472488775
 10
-98.7758034653
 20
-30.2472488775
 10
-97.7411750869
 20
-30.2366914451
 10
-96.791006168
 20
-30.2050191478
 10
-95.9252967086
 20
-30.1469532694
 10
-95.1493254248
 20
-30.0677725262
 10
-94.4630923167
 20
-29.9674769181
 10
-93.8560399518
 20
-29.8460664451
 10
-93.3387257626
 20
-29.7035411073
 10
-92.9111497491
 20
-29.5346221884
 10
-92.9111497491
 20
-29.5346221884
 10
-92.5310821815
 20
-29.3287522559
 10
-92.2829825194
 20
-29.1123248911
 10
-92.1404571815
 20
-28.8378316478
 10
-92.0665551545
 20
-28.4630427965
 10
-92.0665551545
 20
-28.4630427965
 10
-91.3908794788
 20
-28.4630427965
 10
-91.3908794788
 20
-28.4630427965
 10
-91.3908794788
 20
-32.1317505667
 10
-91.3908794788
 20
-32.1317505667
 10
-92.0665551545
 20
-32.1317505667
 10
-92.0665551545
 20
-32.1317505667
 10
-92.1879656275
 20
-31.8308637424
 10
-92.372720695
 20
-31.6038789451
 10
-92.6577713707
 20
-31.4032877289
 10
-93.0906261004
 20
-31.2026965127
 10
-93.0906261004
 20
-31.2026965127
 10
-93.5129233977
 20
-31.0601711748
 10
-93.9932865734
 20
-30.9387607019
 10
-94.5422730599
 20
-30.8331863775
 10
-95.154604141
 20
-30.7434482019
 10
-95.8250011004
 20
-30.6748248911
 10
-96.5534639383
 20
-30.6220377289
 10
-97.3399926545
 20
-30.5956441478
 10
-98.1845872491
 20
-30.5850867154
 10
-98.1845872491
 20
-30.5850867154
 10
-108.2035906275
 20
-30.5850867154
 10
-108.2035906275
 20
-30.5850867154
 10
-109.1748744113
 20
-30.574529283
 10
-110.0828136004
 20
-30.5375782694
 10
-110.9379656275
 20
-30.4742336748
 10
-111.7297730599
 20
-30.3897742154
 10
-112.4687933302
 20
-30.2789211748
 10
-113.1444690059
 20
-30.1469532694
 10
-113.7620788032
 20
-29.988591783
 10
-114.3216227221
 20
-29.8038367154
 10
-114.3216227221
 20
-29.8038367154
 10
-114.8547730599
 20
-29.6296390803
 10
-115.3087426545
 20
-29.4554414451
 10
-115.6835315059
 20
-29.2706863775
 10
-115.979139614
 20
-29.0806525938
 10
-115.979139614
 20
-29.0806525938
 10
-116.4542240734
 20
-28.647797864
 10
-116.7920619113
 20
-28.1727134046
 10
-116.9979318437
 20
-27.6606779316
 10
-117.0665551545
 20
-27.1064127289
 10
-117.0665551545
 20
-27.1064127289
 10
-117.029604141
 20
-26.694672864
 10
-116.9240298167
 20
-26.2987691478
 10
-116.7445534653
 20
-25.9292590127
 10
-116.4911750869
 20
-25.5755850262
 10
-116.1691733977
 20
-25.2430259046
 10
-115.7891058302
 20
-24.9421390803
 10
-115.345693668
 20
-24.6729245532
 10
-114.8442156275
 20
-24.4353823235
 10
-114.8442156275
 20
-24.4353823235
 10
-114.3110652896
 20
-24.2136762424
 10
-113.7198490734
 20
-24.0236424586
 10
-113.0705669788
 20
-23.8600022559
 10
-112.3684977221
 20
-23.7280343505
 10
-111.6136413032
 20
-23.6224600262
 10
-110.8059977221
 20
-23.5485579992
 10
-109.9402882626
 20
-23.5063282694
 10
-109.0165129248
 20
-23.4904921208
 10
-109.0165129248
 20
-23.4904921208
 10
-96.6379233977
 20
-23.4904921208
 10
-96.6379233977
 20
-23.4904921208
 10
-95.5663440059
 20
-23.4693772559
 10
-94.6372899518
 20
-23.4060326613
 10
-93.8507612356
 20
-23.300458337
 10
-93.2067578572
 20
-23.152654283
 10
-92.7105585329
 20
-22.9678992154
 10
-92.3516058302
 20
-22.7356357019
 10
-92.1404571815
 20
-22.4664211748
 10
-92.0665551545
 20
-22.1496982019
 10
-92.0665551545
 20
-22.1496982019
 10
-92.0665551545
 20
-21.8488113775
 10
-92.0665551545
 20
-21.8488113775
 10
-91.3908794788
 20
-21.8488113775
  0
LWPOLYLINE
  5
65
330
1F
100
AcDbEntity
  8
0
  6
Continuous
 62
     7
100
AcDbPolyline
 90
      224
 70
   128
 43
0.0
 10
-92.066526413
 20
-19.1524431343
 10
-92.0665551545
 20
-19.3371982019
 10
-92.0665551545
 20
-19.3371982019
 10
-100.5125011004
 20
-19.3371982019
 10
-100.5125011004
 20
-19.3371982019
 10
-100.5125011004
 20
-19.1524431343
 10
-100.5125011004
 20
-19.1524431343
 10
-99.768202114
 20
-19.0679836748
 10
-99.0714115734
 20
-18.9782454992
 10
-98.4115720464
 20
-18.8885073235
 10
-97.7939622491
 20
-18.7987691478
 10
-97.2238608977
 20
-18.7037522559
 10
-96.6907105599
 20
-18.6034566478
 10
-96.1997899518
 20
-18.5031610397
 10
-95.7510990734
 20
-18.3975867154
 10
-95.7510990734
 20
-18.3975867154
 10
-95.1757190059
 20
-18.2339465127
 10
-94.6320112356
 20
-18.0544701613
 10
-94.130533195
 20
-17.8538789451
 10
-93.6607274518
 20
-17.632172864
 10
-93.2331514383
 20
-17.3946306343
 10
-92.8530838707
 20
-17.1412522559
 10
-92.5258034653
 20
-16.8773164451
 10
-92.2460315059
 20
-16.5975444857
 10
-92.0190467086
 20
-16.3072150938
 10
-91.8554065059
 20
-16.0168857019
 10
-91.760389614
 20
-15.72655631
 10
-91.7287173167
 20
-15.4362269181
 10
-91.7287173167
 20
-15.4362269181
 10
-91.7551108977
 20
-15.2250782694
 10
-91.8290129248
 20
-15.019208337
 10
-91.955702114
 20
-14.8344532694
 10
-92.1351784653
 20
-14.6549769181
 10
-92.3621632626
 20
-14.4913367154
 10
-92.6313777896
 20
-14.3382539451
 10
-92.9533794788
 20
-14.2010073235
 10
-93.322889614
 20
-14.0743181343
 10
-93.322889614
 20
-14.0743181343
 10
-93.9193845464
 20
-13.921235364
 10
-94.5897815059
 20
-13.8051036073
 10
-95.276014614
 20
-13.7312015803
 10
-95.9411328572
 20
-13.7048079992
 10
-95.9411328572
 20
-13.7048079992
 10
-96.5323490734
 20
-13.7206441478
 10
-97.0813355599
 20
-13.77343131
 10
-97.5933710329
 20
-13.8578907694
 10
-98.0631767761
 20
-13.9793012424
 10
-98.0631767761
 20
-13.9793012424
 10
-98.4960315059
 20
-14.1323840127
 10
-98.9130500869
 20
-14.3435326613
 10
-99.3089538032
 20
-14.6127471884
 10
-99.7048575194
 20
-14.9505850262
 10
-99.9107274518
 20
-15.1564549586
 10
-100.1324335329
 20
-15.3939971884
 10
-100.3858119113
 20
-15.6737691478
 10
-100.6550264383
 20
-15.9904921208
 10
-100.6550264383
 20
-15.9904921208
 10
-100.8081092086
 20
-16.1488536073
 10
-100.8820112356
 20
-16.2491492154
 10
-100.8820112356
 20
-16.2491492154
 10
-101.0931598842
 20
-16.50780631
 10
-101.0931598842
 20
-16.50780631
 10
-101.4468338707
 20
-16.9195461748
 10
-101.4468338707
 20
-16.9195461748
 10
-101.8849673167
 20
-17.4051880667
 10
-102.2914284653
 20
-17.8222066478
 10
-102.6767747491
 20
-18.1706019181
 10
-103.0357274518
 20
-18.4450951613
 10
-103.4052375869
 20
-18.6773586748
 10
-103.8328136004
 20
-18.8885073235
 10
-104.3131767761
 20
-19.0838198235
 10
-104.8516058302
 20
-19.2632961748
 10
-104.8516058302
 20
-19.2632961748
 10
-105.2844605599
 20
-19.389985364
 10
-105.7489875869
 20
-19.4955596884
 10
-106.2557443437
 20
-19.5958552965
 10
-106.7941733977
 20
-19.6750360397
 10
-107.9449335329
 20
-19.780610364
 10
-109.1907105599
 20
-19.8175613775
 10
-109.1907105599
 20
-19.8175613775
 10
-110.462881168
 20
-19.7753316478
 10
-111.7403304923
 20
-19.6539211748
 10
-112.3579402896
 20
-19.5641829992
 10
-112.9385990734
 20
-19.4533299586
 10
-113.4823068437
 20
-19.3319194857
 10
-113.9890636004
 20
-19.1893941478
 10
-113.9890636004
 20
-19.1893941478
 10
-114.6277882626
 20
-18.9835242154
 10
-115.1873321815
 20
-18.7512607019
 10
-115.6571379248
 20
-18.5031610397
 10
-116.0424842086
 20
-18.2286677965
 10
-116.3433710329
 20
-17.9330596884
 10
-116.5545196815
 20
-17.6110579992
 10
-116.6864875869
 20
-17.2784988775
 10
-116.7287173167
 20
-16.9195461748
 10
-116.7287173167
 20
-16.9195461748
 10
-116.7076024518
 20
-16.6661677965
 10
-116.638979141
 20
-16.4233468505
 10
-116.5281261004
 20
-16.191083337
 10
-116.3750433302
 20
-15.9693772559
 10
-116.1586159653
 20
-15.7371137424
 10
-115.8682865734
 20
-15.483735364
 10
-115.5040551545
 20
-15.2092421208
 10
-115.0659217086
 20
-14.9136340127
 10
-115.0659217086
 20
-14.9136340127
 10
-114.8019858977
 20
-14.7130427965
 10
-114.5802798167
 20
-14.5388451613
 10
-114.4113608977
 20
-14.3910411073
 10
-114.2846717086
 20
-14.2696306343
 10
-114.1263102221
 20
-14.0532032694
 10
-114.0735230599
 20
-13.8526120532
 10
-114.0735230599
 20
-13.8526120532
 10
-114.1157527896
 20
-13.6731357019
 10
-114.247720695
 20
-13.504216783
 10
-114.4641480599
 20
-13.3564127289
 10
-114.7650348842
 20
-13.2191661073
 10
-115.1451024518
 20
-13.0977556343
 10
-115.5990720464
 20
-12.9974600262
 10
-116.126943668
 20
-12.9235579992
 10
-116.7287173167
 20
-12.870770837
 10
-116.7287173167
 20
-12.870770837
 10
-116.7287173167
 20
-12.6860157694
 10
-116.7287173167
 20
-12.6860157694
 10
-105.2422308302
 20
-12.6860157694
 10
-105.2422308302
 20
-12.6860157694
 10
-105.2422308302
 20
-12.870770837
 10
-105.2422308302
 20
-12.870770837
 10
-106.7202713707
 20
-12.9605090127
 10
-108.1296886004
 20
-13.1083130667
 10
-109.4704825194
 20
-13.3247404316
 10
-110.7426531275
 20
-13.6045123911
 10
-110.7426531275
 20
-13.6045123911
 10
-112.1362342086
 20
-14.0320884046
 10
-113.4347983977
 20
-14.5599600262
 10
-114.0207358977
 20
-14.8502894181
 10
-114.5380500869
 20
-15.1458975262
 10
-114.9867409653
 20
-15.4467843505
 10
-115.3668085329
 20
-15.7529498911
 10
-115.6676953572
 20
-16.0591154316
 10
-115.8788440059
 20
-16.3600022559
 10
-116.0108119113
 20
-16.655610364
 10
-116.053041641
 20
-16.9459397559
 10
-116.053041641
 20
-16.9459397559
 10
-116.0160906275
 20
-17.1940394181
 10
-115.9105163032
 20
-17.436860364
 10
-115.736318668
 20
-17.6638451613
 10
-115.4882190059
 20
-17.8855512424
 10
-115.1767747491
 20
-18.0861424586
 10
-114.8125433302
 20
-18.2603400938
 10
-114.3955247491
 20
-18.413422864
 10
-113.9204402896
 20
-18.5453907694
 10
-113.3978473842
 20
-18.6509650938
 10
-112.8488608977
 20
-18.7248671208
 10
-112.2629233977
 20
-18.7670968505
 10
-111.6453136004
 20
-18.7829329992
 10
-111.6453136004
 20
-18.7829329992
 10
-110.9907527896
 20
-18.7618181343
 10
-110.3678642761
 20
-18.7037522559
 10
-109.7819267761
 20
-18.6034566478
 10
-109.2276615734
 20
-18.46093131
 10
-109.2276615734
 20
-18.46093131
 10
-108.7684132626
 20
-18.2920123911
 10
-108.3461159653
 20
-18.0808637424
 10
-107.9343761004
 20
-17.8116492154
 10
-107.5173575194
 20
-17.4738113775
 10
-107.2956514383
 20
-17.2679414451
 10
-107.0528304923
 20
-17.0303992154
 10
-106.7888946815
 20
-16.7559059721
 10
-106.5091227221
 20
-16.4497404316
 10
-106.5091227221
 20
-16.4497404316
 10
-106.0340382626
 20
-15.92186881
 10
-106.0340382626
 20
-15.92186881
 10
-105.506166641
 20
-15.3834397559
 10
-105.041639614
 20
-14.9294701613
 10
-104.6404571815
 20
-14.5705174586
 10
-104.3026193437
 20
-14.3013029316
 10
-104.3026193437
 20
-14.3013029316
 10
-103.6480585329
 20
-13.8262184721
 10
-102.9987764383
 20
-13.4672657694
 10
-102.650381168
 20
-13.3194617154
 10
-102.2544774518
 20
-13.1822150938
 10
-101.8216227221
 20
-13.0555259046
 10
-101.3412595464
 20
-12.9393941478
 10
-101.3412595464
 20
-12.9393941478
 10
-100.6180754248
 20
-12.79686881
 10
-99.8526615734
 20
-12.6912944857
 10
-99.060854141
 20
-12.6332286073
 10
-98.2268169788
 20
-12.6121137424
 10
-98.2268169788
 20
-12.6121137424
 10
-97.2238608977
 20
-12.6332286073
 10
-96.2736919788
 20
-12.7018519181
 10
-95.3763102221
 20
-12.8179836748
 10
-94.5317156275
 20
-12.9763451613
 10
-93.7557443437
 20
-13.1769363775
 10
-93.0747899518
 20
-13.4144786073
 10
-92.4782950194
 20
-13.6836931343
 10
-91.9768169788
 20
-13.9951373911
 10
-91.5703558302
 20
-14.3329752289
 10
-91.2853051545
 20
-14.6866492154
 10
-91.1111075194
 20
-15.0561593505
 10
-91.053041641
 20
-15.4467843505
 10
-91.053041641
 20
-15.4467843505
 10
-91.0899926545
 20
-15.7476711748
 10
-91.1955669788
 20
-16.0538367154
 10
-91.3750433302
 20
-16.3600022559
 10
-91.6231429923
 20
-16.6714465127
 10
-91.9451446815
 20
-16.9881694857
 10
-92.3410483977
 20
-17.3048924586
 10
-92.8055754248
 20
-17.6216154316
 10
-93.3387257626
 20
-17.9436171208
 10
-93.3387257626
 20
-17.9436171208
 10
-93.6712848842
 20
-18.1547657694
 10
-93.9035483977
 20
-18.3236846884
 10
-94.0460737356
 20
-18.46093131
 10
-94.0935821815
 20
-18.5612269181
 10
-94.0935821815
 20
-18.5612269181
 10
-94.0619098842
 20
-18.6615225262
 10
-93.9668929923
 20
-18.7512607019
 10
-93.8085315059
 20
-18.8357201613
 10
-93.5868254248
 20
-18.9149009046
 10
-93.3017747491
 20
-18.9835242154
 10
-92.9533794788
 20
-19.04686881
 10
-92.541639614
 20
-19.1049346884
 10
-92.0665551545
 20
-19.1524431343
  0
LWPOLYLINE
  5
66
330
1F
100
AcDbEntity
  8
0
  6
Continuous
 62
     7
100
AcDbPolyline
 90
        6
 70
   128
 43
0.0
 10
-96.7962741852
 20
-5.4024431343
 10
-107.9449335329
 20
-4.0880427965
 10
-107.9449335329
 20
-4.0880427965
 10
-107.9449335329
 20
-6.7221221884
 10
-107.9449335329
 20
-6.7221221884
 10
-96.7962848842
 20
-5.4024431343
  0
LWPOLYLINE
  5
67
330
1F
100
AcDbEntity
  8
0
  6
Continuous
 62
     7
100
AcDbPolyline
 90
       93
 70
   128
 43
0.0
 10
-91.0530090332
 20
-5.9197573235
 10
-91.053041641
 20
-6.1045123911
 10
-91.053041641
 20
-6.1045123911
 10
-112.8013524518
 20
-9.1661677965
 10
-112.8013524518
 20
-9.1661677965
 10
-113.2869943437
 20
-9.2400698235
 10
-113.7251277896
 20
-9.3192505667
 10
-114.1210315059
 20
-9.39843131
 10
-114.4747054923
 20
-9.4881694857
 10
-114.7808710329
 20
-9.5779076613
 10
-115.0395281275
 20
-9.6729245532
 10
-115.2559554923
 20
-9.7784988775
 10
-115.4248744113
 20
-9.8840732019
 10
-115.6413017761
 20
-10.1268941478
 10
-115.7152038032
 20
-10.4066661073
 10
-115.7152038032
 20
-10.4066661073
 10
-115.7152038032
 20
-10.6019786073
 10
-115.7152038032
 20
-10.6019786073
 10
-116.3908794788
 20
-10.6019786073
 10
-116.3908794788
 20
-10.6019786073
 10
-116.3908794788
 20
-6.2153654316
 10
-116.3908794788
 20
-6.2153654316
 10
-115.7152038032
 20
-6.2153654316
 10
-115.7152038032
 20
-6.2153654316
 10
-115.7152038032
 20
-6.7326796208
 10
-115.7152038032
 20
-6.7326796208
 10
-115.6888102221
 20
-6.9121559721
 10
-115.6201869113
 20
-7.0652387424
 10
-115.4987764383
 20
-7.1972066478
 10
-115.3351362356
 20
-7.2975022559
 10
-115.1187088707
 20
-7.3766829992
 10
-114.8442156275
 20
-7.4294701613
 10
-114.5274926545
 20
-7.4664211748
 10
-114.1527038032
 20
-7.4769786073
 10
-114.1527038032
 20
-7.4769786073
 10
-113.5984386004
 20
-7.4611424586
 10
-112.9438777896
 20
-7.4083552965
 10
-112.5163017761
 20
-7.3608468505
 10
-111.9409217086
 20
-7.2922235397
 10
-111.2230163032
 20
-7.2077640803
 10
-110.3625855599
 20
-7.0969110397
 10
-110.3625855599
 20
-7.0969110397
 10
-110.2200602221
 20
-7.0757961748
 10
-110.0089115734
 20
-7.05468131
 10
-109.7660906275
 20
-7.0230090127
 10
-109.5285483977
 20
-6.9860579992
 10
-109.5285483977
 20
-6.9860579992
 10
-108.6206092086
 20
-6.8752049586
 10
-108.6206092086
 20
-6.8752049586
 10
-108.6206092086
 20
-3.9824684721
 10
-108.6206092086
 20
-3.9824684721
 10
-110.4681598842
 20
-3.7607623911
 10
-110.4681598842
 20
-3.7607623911
 10
-110.9432443437
 20
-3.5654498911
 10
-111.4183288032
 20
-3.4282032694
 10
-111.8934132626
 20
-3.34374381
 10
-112.3737764383
 20
-3.3173502289
 10
-112.3737764383
 20
-3.3173502289
 10
-113.1866987356
 20
-3.3701373911
 10
-113.9943423167
 20
-3.53905631
 10
-114.369131168
 20
-3.6551880667
 10
-114.6911328572
 20
-3.7871559721
 10
-114.9709048167
 20
-3.9402387424
 10
-115.197889614
 20
-4.1038789451
 10
-115.197889614
 20
-4.1038789451
 10
-115.4354318437
 20
-4.246404283
 10
-115.5832358977
 20
-4.3730934721
 10
-115.662416641
 20
-4.51561881
 10
-115.7152038032
 20
-4.71093131
 10
-115.7152038032
 20
-4.71093131
 10
-116.3908794788
 20
-4.71093131
 10
-116.3908794788
 20
-4.71093131
 10
-116.3908794788
 20
-1.3800613775
 10
-116.3908794788
 20
-1.3800613775
 10
-115.7152038032
 20
-1.3800613775
 10
-115.7152038032
 20
-1.3800613775
 10
-115.5515636004
 20
-1.6756694857
 10
-115.3245788032
 20
-1.902654283
 10
-115.1662173167
 20
-2.0029498911
 10
-114.9656261004
 20
-2.1032454992
 10
-114.7228051545
 20
-2.2140985397
 10
-114.4324757626
 20
-2.3302302965
 10
-114.4324757626
 20
-2.3302302965
 10
-114.026014614
 20
-2.4674769181
 10
-113.5403727221
 20
-2.6100022559
 10
-112.9755500869
 20
-2.7472488775
 10
-112.3315467086
 20
-2.8844954992
 10
-111.6030838707
 20
-3.0217421208
 10
-110.7954402896
 20
-3.1537100262
 10
-109.9086159653
 20
-3.2909566478
 10
-108.9426108977
 20
-3.4229245532
 10
-108.9426108977
 20
-3.4229245532
 10
-91.053041641
 20
-5.9197573235
  0
LWPOLYLINE
  5
68
330
1F
100
AcDbEntity
  8
0
  6
Continuous
 62
     7
100
AcDbPolyline
 90
      195
 70
   128
 43
0.0
 10
-91.7286872864
 20
1.738604163
 10
-91.7287173167
 20
1.5274555143
 10
-91.7287173167
 20
1.5274555143
 10
-102.4814622491
 20
1.469389636
 10
-102.4814622491
 20
1.469389636
 10
-102.4814622491
 20
1.6594234197
 10
-102.4814622491
 20
1.6594234197
 10
-101.5471294788
 20
1.7544403116
 10
-100.7078136004
 20
1.8494572035
 10
-99.9740720464
 20
1.933916663
 10
-99.3406261004
 20
2.0183761225
 10
-98.2426531275
 20
2.1978524738
 10
-97.2872054923
 20
2.3878862576
 10
-97.2872054923
 20
2.3878862576
 10
-96.0678220464
 20
2.6518220684
 10
-94.9856852221
 20
2.9421514603
 10
-94.0355163032
 20
3.2694318657
 10
-93.2225940059
 20
3.6283845684
 10
-92.8741987356
 20
3.8184183522
 10
-92.568033195
 20
4.008452136
 10
-92.3146548167
 20
4.1984859197
 10
-92.103506168
 20
4.3937984197
 10
-91.9398659653
 20
4.5891109197
 10
-91.8237342086
 20
4.7844234197
 10
-91.7498321815
 20
4.9797359197
 10
-91.7287173167
 20
5.180327136
 10
-91.7287173167
 20
5.180327136
 10
-91.760389614
 20
5.3861970684
 10
-91.8606852221
 20
5.5920670008
 10
-92.029604141
 20
5.792658217
 10
-92.2671463707
 20
5.9985281495
 10
-92.5574757626
 20
6.1938406495
 10
-92.8953136004
 20
6.3680382846
 10
-93.275381168
 20
6.5263997711
 10
-93.7029571815
 20
6.6583676765
 10
-93.7029571815
 20
6.6583676765
 10
-94.521158195
 20
6.8536801765
 10
-95.4766058302
 20
7.0225990954
 10
-96.5798575194
 20
7.159845717
 10
-97.8203558302
 20
7.2654200414
 10
-98.5013102221
 20
7.3076497711
 10
-99.2244943437
 20
7.3498795008
 10
-100.0004656275
 20
7.3815517981
 10
-100.8239453572
 20
7.4079453792
 10
-101.6949335329
 20
7.4290602441
 10
-102.6134301545
 20
7.4448963927
 10
-103.5794352221
 20
7.4501751089
 10
-104.5929487356
 20
7.4554538252
 10
-104.5929487356
 20
7.4554538252
 10
-105.822889614
 20
7.4501751089
 10
-107.0528304923
 20
7.4237815279
 10
-108.2035906275
 20
7.3921092306
 10
-109.217104141
 20
7.3446007846
 10
-110.146158195
 20
7.2918136225
 10
-111.0646548167
 20
7.2231903116
 10
-111.4975095464
 20
7.1862392981
 10
-111.8881345464
 20
7.1440095684
 10
-112.2418085329
 20
7.1017798387
 10
-112.5479740734
 20
7.0595501089
 10
-112.5479740734
 20
7.0595501089
 10
-113.4189622491
 20
6.8959099062
 10
-114.173818668
 20
6.7111548387
 10
-114.8283794788
 20
6.50000619
 10
-115.393202114
 20
6.2519065279
 10
-115.8418929923
 20
5.9826920008
 10
-116.1533372491
 20
5.6923626089
 10
-116.3328136004
 20
5.3914757846
 10
-116.3908794788
 20
5.0694740954
 10
-116.3908794788
 20
5.0694740954
 10
-116.3644858977
 20
4.8583254468
 10
-116.2958625869
 20
4.6471767981
 10
-116.174452114
 20
4.4360281495
 10
-116.005533195
 20
4.2248795008
 10
-115.5621210329
 20
3.8500906495
 10
-114.9972983977
 20
3.5544825414
 10
-114.9972983977
 20
3.5544825414
 10
-114.3374588707
 20
3.3380551765
 10
-113.5773237356
 20
3.1849724062
 10
-112.7116142761
 20
3.0952342306
 10
-111.7456092086
 20
3.0635619333
 10
-111.7456092086
 20
3.0635619333
 10
-110.4576024518
 20
3.0635619333
 10
-110.4576024518
 20
3.0635619333
 10
-109.3913017761
 20
3.0846767981
 10
-108.4728051545
 20
3.1427426765
 10
-107.6915551545
 20
3.2377595684
 10
-107.0528304923
 20
3.3802849062
 10
-106.556631168
 20
3.5544825414
 10
-106.2029571815
 20
3.7709099062
 10
-105.9865298167
 20
4.0242882846
 10
-105.9179065059
 20
4.3198963927
 10
-105.9179065059
 20
4.3198963927
 10
-105.9179065059
 20
4.9163913252
 10
-105.9179065059
 20
4.9163913252
 10
-105.2422308302
 20
4.9163913252
 10
-105.2422308302
 20
4.9163913252
 10
-105.2422308302
 20
-0.1353400938
 10
-105.2422308302
 20
-0.1353400938
 10
-105.9179065059
 20
-0.1353400938
 10
-105.9179065059
 20
-0.1353400938
 10
-105.9179065059
 20
0.0335788252
 10
-105.9179065059
 20
0.0335788252
 10
-105.9865298167
 20
0.3503017981
 10
-106.1976784653
 20
0.6247950414
 10
-106.5460737356
 20
0.8570585549
 10
-107.0369943437
 20
1.0418136225
 10
-107.6704402896
 20
1.1896176765
 10
-108.4464115734
 20
1.2899132846
 10
-109.3807443437
 20
1.3532578792
 10
-110.4576024518
 20
1.3743727441
 10
-110.4576024518
 20
1.3743727441
 10
-116.3169774518
 20
1.3743727441
 10
-116.3169774518
 20
1.3743727441
 10
-116.3169774518
 20
1.5855213927
 10
-116.3169774518
 20
1.5855213927
 10
-115.9738608977
 20
1.7069318657
 10
-115.6940889383
 20
1.8177849062
 10
-115.4723828572
 20
1.9233592306
 10
-115.3193000869
 20
2.0183761225
 10
-115.1345450194
 20
2.2242460549
 10
-115.0712004248
 20
2.4776244333
 10
-115.0712004248
 20
2.4776244333
 10
-115.1081514383
 20
2.7098879468
 10
-115.224283195
 20
2.9263153116
 10
-115.3193000869
 20
3.0424470684
 10
-115.4618254248
 20
3.17969369
 10
-115.6465804923
 20
3.3327764603
 10
-115.8735652896
 20
3.5069740954
 10
-115.8735652896
 20
3.5069740954
 10
-116.1955669788
 20
3.7709099062
 10
-116.4647815059
 20
4.008452136
 10
-116.6706514383
 20
4.2143220684
 10
-116.8237342086
 20
4.3937984197
 10
-117.0032105599
 20
4.7633085549
 10
-117.0665551545
 20
5.206720717
 10
-117.0665551545
 20
5.206720717
 10
-117.0084892761
 20
5.6554115954
 10
-116.8290129248
 20
6.0829876089
 10
-116.5334048167
 20
6.50000619
 10
-116.1163862356
 20
6.8959099062
 10
-115.588514614
 20
7.2759774738
 10
-114.9656261004
 20
7.6296514603
 10
-114.2371632626
 20
7.9622105819
 10
-113.4136835329
 20
8.2630974062
 10
-112.5004656275
 20
8.5375906495
 10
-111.5080669788
 20
8.7804115954
 10
-110.4417663032
 20
8.9862815279
 10
-109.2962848842
 20
9.160479163
 10
-108.0874588707
 20
9.3030045008
 10
-106.8364031275
 20
9.4033001089
 10
-105.5378389383
 20
9.4613659873
 10
-104.1970450194
 20
9.4824808522
 10
-104.1970450194
 20
9.4824808522
 10
-102.5553642761
 20
9.4508085549
 10
-100.940077114
 20
9.3452342306
 10
-99.3881345464
 20
9.1815940279
 10
-97.9523237356
 20
8.9598879468
 10
-96.6062511004
 20
8.6748372711
 10
-95.3288017761
 20
8.331720717
 10
-95.3288017761
 20
8.331720717
 10
-94.6742409653
 20
8.1311295008
 10
-94.0671886004
 20
7.9199808522
 10
-93.518202114
 20
7.6982747711
 10
-93.0220027896
 20
7.4660112576
 10
-92.5785906275
 20
7.2284690279
 10
-92.1879656275
 20
6.9803693657
 10
-91.8554065059
 20
6.7269909873
 10
-91.5703558302
 20
6.4683338927
 10
-91.3433710329
 20
6.2043980819
 10
-91.1797308302
 20
5.9404622711
 10
-91.0847139383
 20
5.6765264603
 10
-91.053041641
 20
5.4125906495
 10
-91.053041641
 20
5.4125906495
 10
-91.0794352221
 20
5.1539335549
 10
-91.1691733977
 20
4.8952764603
 10
-91.3116987356
 20
4.6418980819
 10
-91.517568668
 20
4.3885197035
 10
-91.7815044788
 20
4.1298626089
 10
-92.1193423167
 20
3.8606480819
 10
-92.5258034653
 20
3.5808761225
 10
-93.006166641
 20
3.2852680143
 10
-93.006166641
 20
3.2852680143
 10
-93.349283195
 20
3.0530045008
 10
-93.5973828572
 20
2.862970717
 10
-93.7451869113
 20
2.7046092306
 10
-93.7926953572
 20
2.5831987576
 10
-93.7926953572
 20
2.5831987576
 10
-93.7610230599
 20
2.4829031495
 10
-93.6712848842
 20
2.3773288252
 10
-93.518202114
 20
2.277033217
 10
-93.3070534653
 20
2.1767376089
 10
-93.0272815059
 20
2.0764420008
 10
-92.6683288032
 20
1.9708676765
 10
-92.2354740734
 20
1.8547359197
 10
-91.7287173167
 20
1.738604163
  0
LWPOLYLINE
  5
69
330
1F
100
AcDbEntity
  8
0
  6
Continuous
 62
     7
100
AcDbPolyline
 90
      135
 70
   128
 43
0.0
 10
-91.3908481598
 20
20.2130551765
 10
-91.3908794788
 20
12.2369149738
 10
-91.3908794788
 20
12.2369149738
 10
-101.0403727221
 20
12.2369149738
 10
-101.0403727221
 20
12.2369149738
 10
-101.0403727221
 20
12.3952764603
 10
-101.0403727221
 20
12.3952764603
 10
-99.8579402896
 20
12.5008507846
 10
-98.8285906275
 20
12.6011463927
 10
-97.962881168
 20
12.6908845684
 10
-97.255533195
 20
12.7806227441
 10
-96.0308710329
 20
12.9812139603
 10
-94.8801108977
 20
13.2293136225
 10
-94.8801108977
 20
13.2293136225
 10
-94.2625011004
 20
13.3982325414
 10
-93.7346294788
 20
13.5777088927
 10
-93.3070534653
 20
13.7624639603
 10
-92.9744943437
 20
13.9524977441
 10
-92.9744943437
 20
13.9524977441
 10
-92.5785906275
 20
14.2956142981
 10
-92.2935399518
 20
14.6704031495
 10
-92.1246210329
 20
15.0821430143
 10
-92.0665551545
 20
15.5308338927
 10
-92.0665551545
 20
15.5308338927
 10
-92.0665551545
 20
16.9824808522
 10
-92.0665551545
 20
16.9824808522
 10
-103.8908794788
 20
16.9824808522
 10
-103.8908794788
 20
16.9824808522
 10
-103.8908794788
 20
16.5918558522
 10
-103.8908794788
 20
16.5918558522
 10
-103.8539284653
 20
16.3807072035
 10
-103.7325179923
 20
16.1801159873
 10
-103.5372054923
 20
15.9900822035
 10
-103.2574335329
 20
15.8106058522
 10
-102.9037595464
 20
15.6416869333
 10
-102.4709048167
 20
15.488604163
 10
-101.9535906275
 20
15.3408001089
 10
-101.3623744113
 20
15.2088322035
 10
-101.3623744113
 20
15.2088322035
 10
-100.6814200194
 20
15.0874217306
 10
-99.9371210329
 20
14.9818474062
 10
-99.134756168
 20
14.8921092306
 10
-98.2637679923
 20
14.8182072035
 10
-98.2637679923
 20
14.8182072035
 10
-97.8361919788
 20
14.7865349062
 10
-97.3135990734
 20
14.7601413252
 10
-96.7065467086
 20
14.7284690279
 10
-96.0044774518
 20
14.7020754468
 10
-96.0044774518
 20
14.7020754468
 10
-96.0044774518
 20
14.5173203792
 10
-96.0044774518
 20
14.5173203792
 10
-112.4001700194
 20
14.5173203792
 10
-112.4001700194
 20
14.5173203792
 10
-112.4001700194
 20
14.7020754468
 10
-112.4001700194
 20
14.7020754468
 10
-111.1174419788
 20
14.7706987576
 10
-109.9138946815
 20
14.8498795008
 10
-109.3543507626
 20
14.8973879468
 10
-108.8528727221
 20
14.9448963927
 10
-108.4041818437
 20
14.9924048387
 10
-108.0135568437
 20
15.0451920008
 10
-107.2798152896
 20
15.17188119
 10
-106.5460737356
 20
15.3249639603
 10
-106.5460737356
 20
15.3249639603
 10
-106.0815467086
 20
15.4516531495
 10
-105.6803642761
 20
15.5888997711
 10
-105.3372477221
 20
15.7367038252
 10
-105.0627544788
 20
15.9003440279
 10
-104.846327114
 20
16.074541663
 10
-104.6879656275
 20
16.2645754468
 10
-104.5982274518
 20
16.465166663
 10
-104.5665551545
 20
16.6763153116
 10
-104.5665551545
 20
16.6763153116
 10
-104.5665551545
 20
16.9824808522
 10
-104.5665551545
 20
16.9824808522
 10
-115.7152038032
 20
16.9824808522
 10
-115.7152038032
 20
16.9824808522
 10
-115.7152038032
 20
15.7683761225
 10
-115.7152038032
 20
15.7683761225
 10
-115.6518592086
 20
15.2563406495
 10
-115.4565467086
 20
14.7970923387
 10
-115.1239875869
 20
14.39063119
 10
-114.6541818437
 20
14.0263997711
 10
-114.3638524518
 20
13.8574808522
 10
-114.026014614
 20
13.6938406495
 10
-113.6512257626
 20
13.535479163
 10
-113.2342071815
 20
13.3823963927
 10
-113.2342071815
 20
13.3823963927
 10
-112.4476784653
 20
13.1395754468
 10
-111.5714115734
 20
12.9231480819
 10
-110.6054065059
 20
12.7383930143
 10
-109.5443845464
 20
12.5800315279
 10
-109.5443845464
 20
12.5800315279
 10
-108.8528727221
 20
12.4955720684
 10
-108.0557865734
 20
12.4111126089
 10
-107.142568668
 20
12.3266531495
 10
-106.1184977221
 20
12.2369149738
 10
-106.1184977221
 20
12.2369149738
 10
-106.1184977221
 20
12.0416024738
 10
-106.1184977221
 20
12.0416024738
 10
-116.3908794788
 20
12.0416024738
 10
-116.3908794788
 20
12.0416024738
 10
-116.3908794788
 20
20.2024977441
 10
-116.3908794788
 20
20.2024977441
 10
-115.7152038032
 20
20.2130551765
 10
-115.7152038032
 20
20.2130551765
 10
-115.7152038032
 20
20.0124639603
 10
-115.7152038032
 20
20.0124639603
 10
-115.6413017761
 20
19.6957409873
 10
-115.4301531275
 20
19.4265264603
 10
-115.0712004248
 20
19.1942629468
 10
-114.5697223842
 20
19.0095078792
 10
-113.9257190059
 20
18.8617038252
 10
-113.1391902896
 20
18.7561295008
 10
-112.2101362356
 20
18.6927849062
 10
-111.1385568437
 20
18.6716700414
 10
-111.1385568437
 20
18.6716700414
 10
-96.6062511004
 20
18.6716700414
 10
-96.6062511004
 20
18.6716700414
 10
-96.0467071815
 20
18.6769487576
 10
-95.5188355599
 20
18.6927849062
 10
-95.033193668
 20
18.7191784873
 10
-94.5845027896
 20
18.7561295008
 10
-94.178041641
 20
18.7983592306
 10
-93.8032527896
 20
18.8564251089
 10
-93.470693668
 20
18.9197697035
 10
-93.1750855599
 20
18.9989504468
 10
-92.689443668
 20
19.1837055143
 10
-92.3410483977
 20
19.4159690279
 10
-92.1351784653
 20
19.6904622711
 10
-92.0665551545
 20
20.0124639603
 10
-92.0665551545
 20
20.0124639603
 10
-92.0665551545
 20
20.2130551765
 10
-92.0665551545
 20
20.2130551765
 10
-91.3908794788
 20
20.2130551765
  0
LWPOLYLINE
  5
6A
330
1F
100
AcDbEntity
  8
0
  6
Continuous
 62
     7
100
AcDbPolyline
 90
       37
 70
   128
 43
0.0
 10
-92.066526413
 20
27.1851835549
 10
-104.5665551545
 20
27.1851835549
 10
-104.5665551545
 20
27.1851835549
 10
-104.5665551545
 20
25.6701920008
 10
-104.5665551545
 20
25.6701920008
 10
-104.5401615734
 20
25.3956987576
 10
-104.4715382626
 20
25.1423203792
 10
-104.3501277896
 20
24.9100568657
 10
-104.1812088707
 20
24.6936295008
 10
-103.9647815059
 20
24.4930382846
 10
-103.700845695
 20
24.3135619333
 10
-103.3894014383
 20
24.1499217306
 10
-103.0304487356
 20
24.0073963927
 10
-102.6187088707
 20
23.8807072035
 10
-102.1594605599
 20
23.769854163
 10
-101.6421463707
 20
23.6801159873
 10
-101.0720450194
 20
23.6062139603
 10
-100.4544352221
 20
23.5428693657
 10
-99.7840382626
 20
23.500639636
 10
-99.0555754248
 20
23.4795247711
 10
-98.279604141
 20
23.4689673387
 10
-98.279604141
 20
23.4689673387
 10
-97.376943668
 20
23.4795247711
 10
-96.5429065059
 20
23.5164757846
 10
-95.7827713707
 20
23.574541663
 10
-95.0965382626
 20
23.6537224062
 10
-94.4789284653
 20
23.7592967306
 10
-93.9299419788
 20
23.8859859197
 10
-93.4548575194
 20
24.03906869
 10
-93.0536750869
 20
24.2132663252
 10
-93.0536750869
 20
24.2132663252
 10
-92.6049842086
 20
24.503595717
 10
-92.298818668
 20
24.8361548387
 10
-92.1246210329
 20
25.2373372711
 10
-92.0665551545
 20
25.7282578792
 10
-92.0665551545
 20
25.7282578792
 10
-92.0665551545
 20
27.1851835549
  0
LWPOLYLINE
  5
6B
330
1F
100
AcDbEntity
  8
0
  6
Continuous
 62
     7
100
AcDbPolyline
 90
       82
 70
   128
 43
0.0
 10
-91.3908481598
 20
30.4632663252
 10
-91.3908794788
 20
25.9288490954
 10
-91.3908794788
 20
25.9288490954
 10
-91.4119943437
 20
25.5012730819
 10
-91.4858963707
 20
25.0367460549
 10
-91.5861919788
 20
24.5774977441
 10
-91.712881168
 20
24.160479163
 10
-91.8554065059
 20
23.8068051765
 10
-92.029604141
 20
23.5217545008
 10
-92.029604141
 20
23.5217545008
 10
-92.4043929923
 20
23.1258507846
 10
-92.9058710329
 20
22.7774555143
 10
-93.5340382626
 20
22.47656869
 10
-94.2836159653
 20
22.2284690279
 10
-95.1440467086
 20
22.0331565279
 10
-96.0994943437
 20
21.89063119
 10
-97.1552375869
 20
21.8061717306
 10
-98.3059977221
 20
21.7797781495
 10
-98.3059977221
 20
21.7797781495
 10
-99.1083625869
 20
21.7956142981
 10
-99.8632190059
 20
21.8378440279
 10
-100.575845695
 20
21.9064673387
 10
-101.2462426545
 20
22.0014842306
 10
-101.8638524518
 20
22.1281734197
 10
-102.4339538032
 20
22.28125619
 10
-102.9512679923
 20
22.4554538252
 10
-103.4210737356
 20
22.6613237576
 10
-103.8380923167
 20
22.8883085549
 10
-104.2023237356
 20
23.1416869333
 10
-104.5190467086
 20
23.4214588927
 10
-104.7777038032
 20
23.722345717
 10
-104.9782950194
 20
24.0496261225
 10
-105.1260990734
 20
24.3927426765
 10
-105.2105585329
 20
24.7569740954
 10
-105.2422308302
 20
25.1423203792
 10
-105.2422308302
 20
25.1423203792
 10
-105.2422308302
 20
27.1851835549
 10
-105.2422308302
 20
27.1851835549
 10
-111.1543929923
 20
27.1851835549
 10
-111.1543929923
 20
27.1851835549
 10
-112.220693668
 20
27.16406869
 10
-113.1497477221
 20
27.1007240954
 10
-113.9309977221
 20
26.9898710549
 10
-114.5750011004
 20
26.8420670008
 10
-115.0712004248
 20
26.6467545008
 10
-115.4301531275
 20
26.4092122711
 10
-115.6413017761
 20
26.1294403116
 10
-115.7152038032
 20
25.8074386225
 10
-115.7152038032
 20
25.8074386225
 10
-115.7152038032
 20
25.4273710549
 10
-115.7152038032
 20
25.4273710549
 10
-116.3908794788
 20
25.4273710549
 10
-116.3908794788
 20
25.4273710549
 10
-116.3908794788
 20
30.4738237576
 10
-116.3908794788
 20
30.4738237576
 10
-115.7152038032
 20
30.4738237576
 10
-115.7152038032
 20
30.4738237576
 10
-115.7152038032
 20
30.215166663
 10
-115.7152038032
 20
30.215166663
 10
-115.6413017761
 20
29.89844369
 10
-115.4301531275
 20
29.629229163
 10
-115.0712004248
 20
29.3969656495
 10
-114.5697223842
 20
29.2122105819
 10
-113.9257190059
 20
29.0644065279
 10
-113.1391902896
 20
28.9588322035
 10
-112.2101362356
 20
28.8954876089
 10
-111.1385568437
 20
28.8743727441
 10
-111.1385568437
 20
28.8743727441
 10
-96.6062511004
 20
28.8743727441
 10
-96.6062511004
 20
28.8743727441
 10
-95.5399504248
 20
28.8954876089
 10
-94.6214538032
 20
28.9588322035
 10
-93.8402038032
 20
29.0644065279
 10
-93.201479141
 20
29.2122105819
 10
-92.7052798167
 20
29.3969656495
 10
-92.3516058302
 20
29.629229163
 10
-92.1351784653
 20
29.89844369
 10
-92.0665551545
 20
30.215166663
 10
-92.0665551545
 20
30.215166663
 10
-92.0665551545
 20
30.4632663252
 10
-92.0665551545
 20
30.4632663252
 10
-91.3908794788
 20
30.4632663252
  0
LWPOLYLINE
  5
6C
330
1F
100
AcDbEntity
  8
0
  6
Continuous
 62
     7
100
AcDbPolyline
 90
       77
 70
   128
 43
0.0
 10
-91.0530090332
 20
36.61719369
 10
-91.1216649518
 20
36.105158217
 10
-91.3328136004
 20
35.6142376089
 10
-91.6812088707
 20
35.1497105819
 10
-92.1668507626
 20
34.7010197035
 10
-92.7844605599
 20
34.2787224062
 10
-93.5340382626
 20
33.8880974062
 10
-94.4103051545
 20
33.5238659873
 10
-95.4132612356
 20
33.1913068657
 10
-95.4132612356
 20
33.1913068657
 10
-96.3370365734
 20
32.9168136225
 10
-97.3188777896
 20
32.6792713927
 10
-98.3482274518
 20
32.4681227441
 10
-99.4303642761
 20
32.2939251089
 10
-100.5441733977
 20
32.1566784873
 10
-101.6685399518
 20
32.0616615954
 10
-102.8087426545
 20
32.003595717
 10
-103.9595027896
 20
31.9824808522
 10
-103.9595027896
 20
31.9824808522
 10
-105.6645281275
 20
32.0194318657
 10
-107.3009301545
 20
32.1355636225
 10
-108.8739875869
 20
32.32031869
 10
-110.3731429923
 20
32.5842545008
 10
-111.0857696815
 20
32.7426159873
 10
-111.7614453572
 20
32.9168136225
 10
-112.4001700194
 20
33.10156869
 10
-112.9966649518
 20
33.3021599062
 10
-113.5614875869
 20
33.5133085549
 10
-114.0840804923
 20
33.7402933522
 10
-114.5697223842
 20
33.9778355819
 10
-115.0184132626
 20
34.2312139603
 10
-115.419595695
 20
34.4951497711
 10
-115.7679909653
 20
34.7643642981
 10
-116.0583203572
 20
35.0388575414
 10
-116.3011413032
 20
35.323908217
 10
-116.4858963707
 20
35.6089588927
 10
-116.6231429923
 20
35.9045670008
 10
-116.7023237356
 20
36.2054538252
 10
-116.7287173167
 20
36.5116193657
 10
-116.7287173167
 20
36.5116193657
 10
-116.6653727221
 20
36.9761463927
 10
-116.4858963707
 20
37.4301159873
 10
-116.1797308302
 20
37.8682494333
 10
-115.7574335329
 20
38.2905467306
 10
-115.2190044788
 20
38.6970078792
 10
-114.5855585329
 20
39.0770754468
 10
-113.8465382626
 20
39.4307494333
 10
-113.0072223842
 20
39.7580298387
 10
-112.0781683302
 20
40.058916663
 10
-111.0804909653
 20
40.3228524738
 10
-110.0036328572
 20
40.5498372711
 10
-108.8581514383
 20
40.7451497711
 10
-107.6598828572
 20
40.9035112576
 10
-106.435220695
 20
41.0143642981
 10
-105.1841649518
 20
41.0829876089
 10
-103.9067156275
 20
41.1041024738
 10
-103.9067156275
 20
41.1041024738
 10
-102.2175264383
 20
41.0671514603
 10
-100.5916818437
 20
40.9510197035
 10
-99.0186244113
 20
40.7609859197
 10
-97.5089115734
 20
40.4917713927
 10
-96.7857274518
 20
40.3334099062
 10
-96.0994943437
 20
40.1592122711
 10
-95.4554909653
 20
39.9744572035
 10
-94.8431598842
 20
39.7738659873
 10
-94.2730585329
 20
39.5627173387
 10
-93.7451869113
 20
39.3410112576
 10
-93.2489875869
 20
39.1034690279
 10
-92.7950179923
 20
38.8500906495
 10
-92.3885568437
 20
38.5914335549
 10
-92.0348828572
 20
38.3222190279
 10
-91.7339960329
 20
38.0530045008
 10
-91.4858963707
 20
37.7785112576
 10
-91.2958625869
 20
37.4934605819
 10
-91.1638946815
 20
37.2084099062
 10
-91.0794352221
 20
36.9128017981
 10
-91.053041641
 20
36.61719369
  0
LWPOLYLINE
  5
6D
330
1F
100
AcDbEntity
  8
0
  6
Continuous
 62
     7
100
AcDbPolyline
 90
       78
 70
   128
 43
0.0
 10
-91.7286872864
 20
36.4852257846
 10
-91.7656683302
 20
36.7174892981
 10
-91.8659639383
 20
36.9497528116
 10
-92.0454402896
 20
37.1661801765
 10
-92.2882612356
 20
37.3826075414
 10
-92.5944267761
 20
37.5831987576
 10
-92.958658195
 20
37.7732325414
 10
-93.3809554923
 20
37.9368727441
 10
-93.861318668
 20
38.0899555143
 10
-93.861318668
 20
38.0899555143
 10
-94.4419774518
 20
38.2430382846
 10
-95.0754233977
 20
38.3855636225
 10
-95.7616565059
 20
38.5122528116
 10
-96.5006767761
 20
38.6283845684
 10
-97.2872054923
 20
38.7339588927
 10
-98.1159639383
 20
38.8236970684
 10
-98.986952114
 20
38.8975990954
 10
-99.9054487356
 20
38.96094369
 10
-100.8608963707
 20
39.0137308522
 10
-101.8585737356
 20
39.0506818657
 10
-102.8879233977
 20
39.0717967306
 10
-103.9542240734
 20
39.0770754468
 10
-103.9542240734
 20
39.0770754468
 10
-105.2791818437
 20
39.0665180143
 10
-106.5460737356
 20
39.034845717
 10
-107.7548997491
 20
38.9767798387
 10
-108.900381168
 20
38.8975990954
 10
-109.9772392761
 20
38.7973034873
 10
-110.9801953572
 20
38.6811717306
 10
-111.903970695
 20
38.5386463927
 10
-112.7485652896
 20
38.3802849062
 10
-113.5034217086
 20
38.2060872711
 10
-114.1685399518
 20
38.0160534873
 10
-114.7333625869
 20
37.8049048387
 10
-115.2084470464
 20
37.5831987576
 10
-115.5779571815
 20
37.3456565279
 10
-115.8418929923
 20
37.0922781495
 10
-116.0002544788
 20
36.8230636225
 10
-116.053041641
 20
36.543291663
 10
-116.053041641
 20
36.543291663
 10
-116.0319267761
 20
36.3532578792
 10
-115.9580247491
 20
36.1685028116
 10
-115.8418929923
 20
35.9943051765
 10
-115.6782527896
 20
35.8201075414
 10
-115.4723828572
 20
35.6564673387
 10
-115.2137257626
 20
35.4981058522
 10
-114.9128389383
 20
35.3450230819
 10
-114.564443668
 20
35.1972190279
 10
-114.1685399518
 20
35.0599724062
 10
-113.7356852221
 20
34.9280045008
 10
-113.2658794788
 20
34.8013153116
 10
-112.7538440059
 20
34.6904622711
 10
-112.1995788032
 20
34.5848879468
 10
-111.6083625869
 20
34.4845923387
 10
-110.974916641
 20
34.394854163
 10
-110.3045196815
 20
34.3156734197
 10
-108.8528727221
 20
34.1837055143
 10
-107.2745365734
 20
34.0886886225
 10
-105.5642325194
 20
34.0306227441
 10
-103.7219605599
 20
34.0095078792
 10
-103.7219605599
 20
34.0095078792
 10
-102.5078558302
 20
34.0200653116
 10
-101.330702114
 20
34.0517376089
 10
-100.1957781275
 20
34.1045247711
 10
-99.1030838707
 20
34.1784267981
 10
-98.0631767761
 20
34.27344369
 10
-97.0866142761
 20
34.3842967306
 10
-96.1892325194
 20
34.5109859197
 10
-95.3551953572
 20
34.6587899738
 10
-94.5950602221
 20
34.8277088927
 10
-93.9193845464
 20
35.0071852441
 10
-93.3281683302
 20
35.2077764603
 10
-92.8214115734
 20
35.4189251089
 10
-92.8214115734
 20
35.4189251089
 10
-92.3779994113
 20
35.6564673387
 10
-92.029604141
 20
35.9256818657
 10
-91.8026193437
 20
36.2107325414
 10
-91.7287173167
 20
36.4852257846
  0
LWPOLYLINE
  5
6E
330
1F
100
AcDbEntity
  8
0
  6
Continuous
 62
     7
100
AcDbPolyline
 90
       40
 70
   128
 43
0.0
 10
-92.066526413
 20
48.9419403116
 10
-102.8773659653
 20
48.9419403116
 10
-102.8773659653
 20
48.9419403116
 10
-102.8773659653
 20
47.24219369
 10
-102.8773659653
 20
47.24219369
 10
-102.8562511004
 20
46.9888153116
 10
-102.7876277896
 20
46.7512730819
 10
-102.6767747491
 20
46.5295670008
 10
-102.5184132626
 20
46.3236970684
 10
-102.3178220464
 20
46.1389420008
 10
-102.0697223842
 20
45.9647443657
 10
-101.7793929923
 20
45.8116615954
 10
-101.4415551545
 20
45.6691362576
 10
-101.0614875869
 20
45.5477257846
 10
-100.6339115734
 20
45.4421514603
 10
-100.1641058302
 20
45.3524132846
 10
-99.646791641
 20
45.2785112576
 10
-99.0872477221
 20
45.2204453792
 10
-98.4801953572
 20
45.1782156495
 10
-97.8309132626
 20
45.1571007846
 10
-97.1341227221
 20
45.1465433522
 10
-97.1341227221
 20
45.1465433522
 10
-96.5112342086
 20
45.1518220684
 10
-95.9305754248
 20
45.1729369333
 10
-95.3868676545
 20
45.2098879468
 10
-94.8906683302
 20
45.2573963927
 10
-94.4314200194
 20
45.3207409873
 10
-94.0196801545
 20
45.3946430143
 10
-93.6448913032
 20
45.48438119
 10
-93.3123321815
 20
45.5899555143
 10
-93.0220027896
 20
45.7113659873
 10
-92.7686244113
 20
45.8433338927
 10
-92.5521970464
 20
45.996416663
 10
-92.3779994113
 20
46.1600568657
 10
-92.2407527896
 20
46.339533217
 10
-92.1457358977
 20
46.534845717
 10
-92.0876700194
 20
46.7459943657
 10
-92.0665551545
 20
46.972979163
 10
-92.0665551545
 20
46.972979163
 10
-92.0665551545
 20
48.9419403116
  0
LWPOLYLINE
  5
6F
330
1F
100
AcDbEntity
  8
0
  6
Continuous
 62
     7
100
AcDbPolyline
 90
       37
 70
   128
 43
0.0
 10
-103.5529971123
 20
48.9419403116
 10
-115.783827114
 20
48.9419403116
 10
-115.783827114
 20
48.9419403116
 10
-115.783827114
 20
47.1841278116
 10
-115.783827114
 20
47.1841278116
 10
-115.7574335329
 20
46.9149132846
 10
-115.6835315059
 20
46.6615349062
 10
-115.5568423167
 20
46.4239926765
 10
-115.3826446815
 20
46.2022865954
 10
-115.1609386004
 20
45.996416663
 10
-114.8864453572
 20
45.8116615954
 10
-114.5591649518
 20
45.6374639603
 10
-114.1843761004
 20
45.4791024738
 10
-113.7620788032
 20
45.3418558522
 10
-113.2975517761
 20
45.2204453792
 10
-112.7907950194
 20
45.1201497711
 10
-112.2418085329
 20
45.0356903116
 10
-111.6558710329
 20
44.972345717
 10
-111.0224250869
 20
44.9248372711
 10
-110.3520281275
 20
44.89844369
 10
-109.6341227221
 20
44.8878862576
 10
-109.6341227221
 20
44.8878862576
 10
-108.4411328572
 20
44.9195585549
 10
-107.3748321815
 20
45.0092967306
 10
-106.4404994113
 20
45.1571007846
 10
-105.6328558302
 20
45.3682494333
 10
-105.6328558302
 20
45.3682494333
 10
-105.0891480599
 20
45.558283217
 10
-104.6351784653
 20
45.7747105819
 10
-104.2762257626
 20
46.0016953792
 10
-104.0070112356
 20
46.2550737576
 10
-103.8064200194
 20
46.5506818657
 10
-103.6638946815
 20
46.9043558522
 10
-103.5794352221
 20
47.3213744333
 10
-103.553041641
 20
47.7964588927
 10
-103.553041641
 20
47.7964588927
 10
-103.553041641
 20
48.9419403116
  0
LWPOLYLINE
  5
70
330
1F
100
AcDbEntity
  8
0
  6
Continuous
 62
     7
100
AcDbPolyline
 90
       91
 70
   128
 43
0.0
 10
-91.3908481598
 20
52.1883507846
 10
-91.3908794788
 20
46.5770754468
 10
-91.3908794788
 20
46.5770754468
 10
-91.4172730599
 20
46.2497950414
 10
-91.4964538032
 20
45.922514636
 10
-91.6337004248
 20
45.605791663
 10
-91.8237342086
 20
45.2943474062
 10
-92.0559977221
 20
45.0040180143
 10
-92.3252122491
 20
44.7453609197
 10
-92.6260990734
 20
44.5183761225
 10
-92.9692156275
 20
44.3283423387
 10
-92.9692156275
 20
44.3283423387
 10
-93.396791641
 20
44.1488659873
 10
-93.8665973842
 20
43.9852257846
 10
-94.3839115734
 20
43.847979163
 10
-94.9381767761
 20
43.7318474062
 10
-96.1364453572
 20
43.5734859197
 10
-97.4191733977
 20
43.5206987576
 10
-97.4191733977
 20
43.5206987576
 10
-98.4590804923
 20
43.5629284873
 10
-99.4250855599
 20
43.6896176765
 10
-100.3224673167
 20
43.8954876089
 10
-101.1459470464
 20
44.1858170008
 10
-101.1459470464
 20
44.1858170008
 10
-101.7266058302
 20
44.4708676765
 10
-102.2016902896
 20
44.777033217
 10
-102.6556598842
 20
45.1623795008
 10
-103.1729740734
 20
45.6744149738
 10
-103.1729740734
 20
45.6744149738
 10
-103.2415973842
 20
45.6744149738
 10
-103.2415973842
 20
45.6744149738
 10
-103.4949757626
 20
45.3207409873
 10
-103.7694690059
 20
44.9987392981
 10
-104.0756345464
 20
44.7136886225
 10
-104.4029149518
 20
44.4550315279
 10
-104.4029149518
 20
44.4550315279
 10
-104.9307865734
 20
44.1594234197
 10
-105.506166641
 20
43.9060450414
 10
-106.1343338707
 20
43.6896176765
 10
-106.8047308302
 20
43.5154200414
 10
-107.5226362356
 20
43.3728947035
 10
-108.2880500869
 20
43.2778778116
 10
-109.1009723842
 20
43.2198119333
 10
-109.9614031275
 20
43.1986970684
 10
-109.9614031275
 20
43.1986970684
 10
-110.9062933302
 20
43.2250906495
 10
-111.7878389383
 20
43.3042713927
 10
-112.611318668
 20
43.4309605819
 10
-113.3661750869
 20
43.6157156495
 10
-114.052408195
 20
43.847979163
 10
-114.6489031275
 20
44.1224724062
 10
-115.1714960329
 20
44.4444740954
 10
-115.6043507626
 20
44.8087055143
 10
-115.9474673167
 20
45.215166663
 10
-116.1955669788
 20
45.6533001089
 10
-116.3433710329
 20
46.1283845684
 10
-116.3908794788
 20
46.6351413252
 10
-116.3908794788
 20
46.6351413252
 10
-116.3908794788
 20
52.1883507846
 10
-116.3908794788
 20
52.1883507846
 10
-115.7152038032
 20
52.1883507846
 10
-115.7152038032
 20
52.1883507846
 10
-115.7152038032
 20
51.9719234197
 10
-115.7152038032
 20
51.9719234197
 10
-115.6465804923
 20
51.6552004468
 10
-115.4354318437
 20
51.3807072035
 10
-115.0870365734
 20
51.14844369
 10
-114.6013946815
 20
50.9584099062
 10
-113.9679487356
 20
50.8158845684
 10
-113.1866987356
 20
50.7155889603
 10
-112.2523659653
 20
50.6522443657
 10
-111.1755078572
 20
50.6311295008
 10
-111.1755078572
 20
50.6311295008
 10
-96.643202114
 20
50.6311295008
 10
-96.643202114
 20
50.6311295008
 10
-96.083658195
 20
50.636408217
 10
-95.5557865734
 20
50.6522443657
 10
-95.0701446815
 20
50.6786379468
 10
-94.6214538032
 20
50.7155889603
 10
-94.2097139383
 20
50.75781869
 10
-93.8349250869
 20
50.8158845684
 10
-93.4970872491
 20
50.879229163
 10
-93.1962004248
 20
50.9584099062
 10
-92.7000011004
 20
51.14844369
 10
-92.346327114
 20
51.3807072035
 10
-92.1351784653
 20
51.6552004468
 10
-92.0665551545
 20
51.9719234197
 10
-92.0665551545
 20
51.9719234197
 10
-92.0665551545
 20
52.1883507846
 10
-92.0665551545
 20
52.1883507846
 10
-91.3908794788
 20
52.1883507846
  0
LWPOLYLINE
  5
71
330
1F
100
AcDbEntity
  8
0
  6
Continuous
 62
     7
100
AcDbPolyline
 90
       77
 70
   128
 43
0.0
 10
-91.0530090332
 20
58.3739504468
 10
-91.1216649518
 20
57.8619149738
 10
-91.3328136004
 20
57.3709943657
 10
-91.6812088707
 20
56.9064673387
 10
-92.1668507626
 20
56.4577764603
 10
-92.7844605599
 20
56.035479163
 10
-93.5340382626
 20
55.644854163
 10
-94.4103051545
 20
55.2806227441
 10
-95.4132612356
 20
54.9480636225
 10
-95.4132612356
 20
54.9480636225
 10
-96.3370365734
 20
54.6735703792
 10
-97.3188777896
 20
54.4360281495
 10
-98.3482274518
 20
54.2248795008
 10
-99.4303642761
 20
54.0506818657
 10
-100.5441733977
 20
53.9134352441
 10
-101.6685399518
 20
53.8184183522
 10
-102.8087426545
 20
53.7603524738
 10
-103.9595027896
 20
53.7392376089
 10
-103.9595027896
 20
53.7392376089
 10
-105.6645281275
 20
53.7761886225
 10
-107.3009301545
 20
53.8923203792
 10
-108.8739875869
 20
54.0770754468
 10
-110.3731429923
 20
54.3410112576
 10
-111.0857696815
 20
54.4993727441
 10
-111.7614453572
 20
54.6735703792
 10
-112.4001700194
 20
54.8583254468
 10
-112.9966649518
 20
55.058916663
 10
-113.5614875869
 20
55.2700653116
 10
-114.0840804923
 20
55.4970501089
 10
-114.5697223842
 20
55.7345923387
 10
-115.0184132626
 20
55.987970717
 10
-115.419595695
 20
56.2519065279
 10
-115.7679909653
 20
56.5211210549
 10
-116.0583203572
 20
56.7956142981
 10
-116.3011413032
 20
57.0806649738
 10
-116.4858963707
 20
57.3657156495
 10
-116.6231429923
 20
57.6613237576
 10
-116.7023237356
 20
57.9622105819
 10
-116.7287173167
 20
58.2683761225
 10
-116.7287173167
 20
58.2683761225
 10
-116.6653727221
 20
58.7329031495
 10
-116.4858963707
 20
59.1868727441
 10
-116.1797308302
 20
59.62500619
 10
-115.7574335329
 20
60.0473034873
 10
-115.2190044788
 20
60.453764636
 10
-114.5855585329
 20
60.8338322035
 10
-113.8465382626
 20
61.18750619
 10
-113.0072223842
 20
61.5147865954
 10
-112.0781683302
 20
61.8156734197
 10
-111.0804909653
 20
62.0796092306
 10
-110.0036328572
 20
62.3065940279
 10
-108.8581514383
 20
62.5019065279
 10
-107.6598828572
 20
62.6602680143
 10
-106.435220695
 20
62.7711210549
 10
-105.1841649518
 20
62.8397443657
 10
-103.9067156275
 20
62.8608592306
 10
-103.9067156275
 20
62.8608592306
 10
-102.2175264383
 20
62.823908217
 10
-100.5916818437
 20
62.7077764603
 10
-99.0186244113
 20
62.5177426765
 10
-97.5089115734
 20
62.2485281495
 10
-96.7857274518
 20
62.090166663
 10
-96.0994943437
 20
61.9159690279
 10
-95.4554909653
 20
61.7312139603
 10
-94.8431598842
 20
61.5306227441
 10
-94.2730585329
 20
61.3194740954
 10
-93.7451869113
 20
61.0977680143
 10
-93.2489875869
 20
60.8602257846
 10
-92.7950179923
 20
60.6068474062
 10
-92.3885568437
 20
60.3481903116
 10
-92.0348828572
 20
60.0789757846
 10
-91.7339960329
 20
59.8097612576
 10
-91.4858963707
 20
59.5352680143
 10
-91.2958625869
 20
59.2502173387
 10
-91.1638946815
 20
58.965166663
 10
-91.0794352221
 20
58.6695585549
 10
-91.053041641
 20
58.3739504468
  0
LWPOLYLINE
  5
72
330
1F
100
AcDbEntity
  8
0
  6
Continuous
 62
     7
100
AcDbPolyline
 90
       78
 70
   128
 43
0.0
 10
-91.7286872864
 20
58.2419825414
 10
-91.7656683302
 20
58.4742460549
 10
-91.8659639383
 20
58.7065095684
 10
-92.0454402896
 20
58.9229369333
 10
-92.2882612356
 20
59.1393642981
 10
-92.5944267761
 20
59.3399555143
 10
-92.958658195
 20
59.5299892981
 10
-93.3809554923
 20
59.6936295008
 10
-93.861318668
 20
59.8467122711
 10
-93.861318668
 20
59.8467122711
 10
-94.4419774518
 20
59.9997950414
 10
-95.0754233977
 20
60.1423203792
 10
-95.7616565059
 20
60.2690095684
 10
-96.5006767761
 20
60.3851413252
 10
-97.2872054923
 20
60.4907156495
 10
-98.1159639383
 20
60.5804538252
 10
-98.986952114
 20
60.6543558522
 10
-99.9054487356
 20
60.7177004468
 10
-100.8608963707
 20
60.7704876089
 10
-101.8585737356
 20
60.8074386225
 10
-102.8879233977
 20
60.8285534873
 10
-103.9542240734
 20
60.8338322035
 10
-103.9542240734
 20
60.8338322035
 10
-105.2791818437
 20
60.8232747711
 10
-106.5460737356
 20
60.7916024738
 10
-107.7548997491
 20
60.7335365954
 10
-108.900381168
 20
60.6543558522
 10
-109.9772392761
 20
60.5540602441
 10
-110.9801953572
 20
60.4379284873
 10
-111.903970695
 20
60.2954031495
 10
-112.7485652896
 20
60.137041663
 10
-113.5034217086
 20
59.9628440279
 10
-114.1685399518
 20
59.7728102441
 10
-114.7333625869
 20
59.5616615954
 10
-115.2084470464
 20
59.3399555143
 10
-115.5779571815
 20
59.1024132846
 10
-115.8418929923
 20
58.8490349062
 10
-116.0002544788
 20
58.5798203792
 10
-116.053041641
 20
58.3000484197
 10
-116.053041641
 20
58.3000484197
 10
-116.0319267761
 20
58.110014636
 10
-115.9580247491
 20
57.9252595684
 10
-115.8418929923
 20
57.7510619333
 10
-115.6782527896
 20
57.5768642981
 10
-115.4723828572
 20
57.4132240954
 10
-115.2137257626
 20
57.2548626089
 10
-114.9128389383
 20
57.1017798387
 10
-114.564443668
 20
56.9539757846
 10
-114.1685399518
 20
56.816729163
 10
-113.7356852221
 20
56.6847612576
 10
-113.2658794788
 20
56.5580720684
 10
-112.7538440059
 20
56.4472190279
 10
-112.1995788032
 20
56.3416447035
 10
-111.6083625869
 20
56.2413490954
 10
-110.974916641
 20
56.1516109197
 10
-110.3045196815
 20
56.0724301765
 10
-108.8528727221
 20
55.9404622711
 10
-107.2745365734
 20
55.8454453792
 10
-105.5642325194
 20
55.7873795008
 10
-103.7219605599
 20
55.766264636
 10
-103.7219605599
 20
55.766264636
 10
-102.5078558302
 20
55.7768220684
 10
-101.330702114
 20
55.8084943657
 10
-100.1957781275
 20
55.8612815279
 10
-99.1030838707
 20
55.9351835549
 10
-98.0631767761
 20
56.0302004468
 10
-97.0866142761
 20
56.1410534873
 10
-96.1892325194
 20
56.2677426765
 10
-95.3551953572
 20
56.4155467306
 10
-94.5950602221
 20
56.5844656495
 10
-93.9193845464
 20
56.7639420008
 10
-93.3281683302
 20
56.964533217
 10
-92.8214115734
 20
57.1756818657
 10
-92.8214115734
 20
57.1756818657
 10
-92.3779994113
 20
57.4132240954
 10
-92.029604141
 20
57.6824386225
 10
-91.8026193437
 20
57.9674892981
 10
-91.7287173167
 20
58.2419825414
  0
LWPOLYLINE
  5
73
330
1F
100
AcDbEntity
  8
0
  6
Continuous
 62
     7
100
AcDbPolyline
 90
      128
 70
   128
 43
0.0
 10
-104.2286753654
 20
70.0071852441
 10
-104.2287173167
 20
71.7122105819
 10
-104.2287173167
 20
71.7122105819
 10
-111.1913440059
 20
71.7122105819
 10
-111.1913440059
 20
71.7122105819
 10
-112.2576446815
 20
71.691095717
 10
-113.1814200194
 20
71.6277511225
 10
-113.9626700194
 20
71.5168980819
 10
-114.5961159653
 20
71.3690940279
 10
-115.0870365734
 20
71.1790602441
 10
-115.4354318437
 20
70.9415180143
 10
-115.6465804923
 20
70.6617460549
 10
-115.7152038032
 20
70.3344656495
 10
-115.7152038032
 20
70.3344656495
 10
-115.7152038032
 20
70.1127595684
 10
-115.7152038032
 20
70.1127595684
 10
-116.3908794788
 20
70.1127595684
 10
-116.3908794788
 20
70.1127595684
 10
-116.3908794788
 20
74.9427849062
 10
-116.3908794788
 20
74.9427849062
 10
-115.7152038032
 20
74.9427849062
 10
-115.7152038032
 20
74.9427849062
 10
-115.7152038032
 20
74.74219369
 10
-115.7152038032
 20
74.74219369
 10
-115.6465804923
 20
74.425470717
 10
-115.4354318437
 20
74.1509774738
 10
-115.0870365734
 20
73.9187139603
 10
-114.5961159653
 20
73.7286801765
 10
-113.9626700194
 20
73.5861548387
 10
-113.1814200194
 20
73.4858592306
 10
-112.2470872491
 20
73.422514636
 10
-111.170229141
 20
73.4013997711
 10
-111.170229141
 20
73.4013997711
 10
-96.6115298167
 20
73.4013997711
 10
-96.6115298167
 20
73.4013997711
 10
-96.0519858977
 20
73.4066784873
 10
-95.5241142761
 20
73.422514636
 10
-95.0384723842
 20
73.448908217
 10
-94.5897815059
 20
73.4858592306
 10
-94.1833203572
 20
73.5280889603
 10
-93.8085315059
 20
73.5861548387
 10
-93.4759723842
 20
73.6494994333
 10
-93.1803642761
 20
73.7286801765
 10
-92.6947223842
 20
73.9134352441
 10
-92.346327114
 20
74.1456987576
 10
-92.1351784653
 20
74.4201920008
 10
-92.0665551545
 20
74.74219369
 10
-92.0665551545
 20
74.74219369
 10
-92.0665551545
 20
74.9427849062
 10
-92.0665551545
 20
74.9427849062
 10
-91.3908794788
 20
74.9427849062
 10
-91.3908794788
 20
74.9427849062
 10
-91.3908794788
 20
69.1045247711
 10
-91.3908794788
 20
69.1045247711
 10
-91.4278304923
 20
68.539702136
 10
-91.5334048167
 20
68.0382240954
 10
-91.7181598842
 20
67.5948119333
 10
-91.9715382626
 20
67.2147443657
 10
-92.3093761004
 20
66.8821852441
 10
-92.7475095464
 20
66.5918558522
 10
-93.2806598842
 20
66.3331987576
 10
-93.9193845464
 20
66.1114926765
 10
-93.9193845464
 20
66.1114926765
 10
-94.763979141
 20
65.9109014603
 10
-95.7510990734
 20
65.75781869
 10
-96.8068423167
 20
65.6628017981
 10
-97.8520281275
 20
65.6311295008
 10
-97.8520281275
 20
65.6311295008
 10
-98.5435399518
 20
65.6416869333
 10
-99.2033794788
 20
65.683916663
 10
-99.8262679923
 20
65.7472612576
 10
-100.4122054923
 20
65.8422781495
 10
-100.966470695
 20
65.9584099062
 10
-101.4837848842
 20
66.1009352441
 10
-101.9694267761
 20
66.269854163
 10
-102.4181176545
 20
66.465166663
 10
-102.4181176545
 20
66.465166663
 10
-102.9829402896
 20
66.8452342306
 10
-103.4844183302
 20
67.3414335549
 10
-103.8750433302
 20
67.8956987576
 10
-104.1178642761
 20
68.4446852441
 10
-104.1178642761
 20
68.4446852441
 10
-104.1653727221
 20
68.68750619
 10
-104.2023237356
 20
68.9883930143
 10
-104.2234386004
 20
69.3420670008
 10
-104.2287173167
 20
69.7538068657
 10
-104.2287173167
 20
69.7538068657
 10
-104.2973406275
 20
69.7538068657
 10
-104.2973406275
 20
69.7538068657
 10
-104.7407527896
 20
69.542658217
 10
-105.1472139383
 20
69.3420670008
 10
-105.5114453572
 20
69.1467545008
 10
-105.8334470464
 20
68.9672781495
 10
-106.3877122491
 20
68.613604163
 10
-106.8575179923
 20
68.2546514603
 10
-107.2534217086
 20
67.8745838927
 10
-107.6123744113
 20
67.441729163
 10
-107.6123744113
 20
67.441729163
 10
-108.5044774518
 20
67.2622528116
 10
-108.5044774518
 20
67.2622528116
 10
-108.9056598842
 20
67.1830720684
 10
-109.2540551545
 20
67.1197274738
 10
-109.5443845464
 20
67.0616615954
 10
-109.7872054923
 20
67.0141531495
 10
-110.2464538032
 20
66.92969369
 10
-110.7637679923
 20
66.8293980819
 10
-110.7637679923
 20
66.8293980819
 10
-111.4975095464
 20
66.6868727441
 10
-112.1784639383
 20
66.5496261225
 10
-112.8119098842
 20
66.417658217
 10
-113.392568668
 20
66.2856903116
 10
-113.9098828572
 20
66.1642798387
 10
-114.3374588707
 20
66.0481480819
 10
-114.685854141
 20
65.9478524738
 10
-114.9497899518
 20
65.8581142981
 10
-114.9497899518
 20
65.8581142981
 10
-115.2823490734
 20
65.6733592306
 10
-115.5251700194
 20
65.4463744333
 10
-115.6676953572
 20
65.1877173387
 10
-115.7152038032
 20
64.8868305143
 10
-115.7152038032
 20
64.8868305143
 10
-115.7152038032
 20
64.6809605819
 10
-115.7152038032
 20
64.6809605819
 10
-116.3908794788
 20
64.6809605819
 10
-116.3908794788
 20
64.6809605819
 10
-116.3908794788
 20
67.3836632846
 10
-116.3908794788
 20
67.3836632846
 10
-104.2287173167
 20
70.0071852441
  0
LWPOLYLINE
  5
74
330
1F
100
AcDbEntity
  8
0
  6
Continuous
 62
     7
100
AcDbPolyline
 90
       36
 70
   128
 43
0.0
 10
-103.5529971123
 20
71.7122105819
 10
-103.553041641
 20
69.5532156495
 10
-103.553041641
 20
69.5532156495
 10
-103.5160906275
 20
69.1889842306
 10
-103.3999588707
 20
68.8564251089
 10
-103.2046463707
 20
68.5608170008
 10
-102.9354318437
 20
68.29688119
 10
-102.5817578572
 20
68.0646176765
 10
-102.1489031275
 20
67.8693051765
 10
-101.6368676545
 20
67.7003862576
 10
-101.0456514383
 20
67.563139636
 10
-100.3646970464
 20
67.4575653116
 10
-99.5940044788
 20
67.3836632846
 10
-98.7335737356
 20
67.3361548387
 10
-97.7834048167
 20
67.32031869
 10
-97.7834048167
 20
67.32031869
 10
-97.0918929923
 20
67.3308761225
 10
-96.4426108977
 20
67.3572697035
 10
-95.8408372491
 20
67.3994994333
 10
-95.2812933302
 20
67.4575653116
 10
-94.7692578572
 20
67.5367460549
 10
-94.299452114
 20
67.6317629468
 10
-93.8771548167
 20
67.7426159873
 10
-93.4970872491
 20
67.8693051765
 10
-93.1592494113
 20
68.0171092306
 10
-92.8689200194
 20
68.1807494333
 10
-92.6260990734
 20
68.3602257846
 10
-92.4255078572
 20
68.5608170008
 10
-92.2671463707
 20
68.7719656495
 10
-92.1562933302
 20
69.004229163
 10
-92.0876700194
 20
69.2576075414
 10
-92.0665551545
 20
69.5215433522
 10
-92.0665551545
 20
69.5215433522
 10
-92.0665551545
 20
71.7122105819
 10
-92.0665551545
 20
71.7122105819
 10
-103.553041641
 20
71.7122105819
  0
CIRCLE
  5
75
330
1F
100
AcDbEntity
  8
0
  6
Continuous
 62
     7
370
    25
100
AcDbCircle
 10
62.6091205212
 20
71.6986970684
 30
0.0
 40
1.500000000001535
  0
CIRCLE
  5
76
330
1F
100
AcDbEntity
  8
0
  6
Continuous
 62
     7
370
    25
100
AcDbCircle
 10
48.7491205212
 20
8.6586990684
 30
0.0
 40
1.49999999999995
  0
CIRCLE
  5
A2
330
1F
100
AcDbEntity
  8
0
  6
Continuous
 62
     7
370
    25
100
AcDbCircle
 10
-40.8908794788
 20
44.5946539181
 30
0.0
 40
1.499999999847063
  0
CIRCLE
  5
A3
330
1F
100
AcDbEntity
  8
0
  6
Continuous
 62
     7
370
    25
100
AcDbCircle
 10
-40.8908794788
 20
-9.4053460819
 30
0.0
 40
1.500000000153765
  0
CIRCLE
  5
A4
330
1F
100
AcDbEntity
  8
0
  6
Continuous
 62
     7
370
    25
100
AcDbCircle
 10
-24.3908794788
 20
27.6986970684
 30
0.0
 40
1.500000000000224
  0
CIRCLE
  5
A5
330
1F
100
AcDbEntity
  8
0
  6
Continuous
 62
     7
370
    25
100
AcDbCircle
 10
24.6091205212
 20
-30.3013029316
 30
0.0
 40
1.50000000000021
  0
CIRCLE
  5
B6
330
1F
100
AcDbEntity
  8
0
  6
Continuous
 62
     7
370
    25
100
AcDbCircle
 10
72.1091205212
 20
-47.8013029316
 30
0.0
 40
1.499999999983395
  0
CIRCLE
  5
B7
330
1F
100
AcDbEntity
  8
0
  6
Continuous
 62
     7
370
    25
100
AcDbCircle
 10
-114.8908794788
 20
85.1986970684
 30
0.0
 40
1.500000000000242
  0
CIRCLE
  5
C0
330
1F
100
AcDbEntity
  8
0
  6
Continuous
 62
     7
370
    25
100
AcDbCircle
 10
72.1091205212
 20
85.1986970684
 30
0.0
 40
1.500000000000256
  0
CIRCLE
  5
C1
330
1F
100
AcDbEntity
  8
0
  6
Continuous
 62
     7
370
    25
100
AcDbCircle
 10
-114.8908794788
 20
-47.8013029316
 30
0.0
 40
1.499999999983366
  0
CIRCLE
  5
C2
330
1F
100
AcDbEntity
  8
0
  6
Continuous
 62
     7
370
    25
100
AcDbCircle
 10
-24.3908794788
 20
-30.3013029316
 30
0.0
 40
1.500000000000217
  0
CIRCLE
  5
C3
330
1F
100
AcDbEntity
  8
0
  6
Continuous
 62
     7
370
    25
100
AcDbCircle
 10
24.6091205212
 20
27.6986970684
 30
0.0
 40
1.500000000000213
  0
CIRCLE
  5
C4
330
1F
100
AcDbEntity
  8
0
  6
Continuous
 62
     7
370
    25
100
AcDbCircle
 10
-79.8908794788
 20
-9.4053460819
 30
0.0
 40
1.500000000153761
  0
CIRCLE
  5
C5
330
1F
100
AcDbEntity
  8
0
  6
Continuous
 62
     7
370
    25
100
AcDbCircle
 10
-79.8908794788
 20
44.5946539181
 30
0.0
 40
1.500000000153754
  0
CIRCLE
  5
C6
330
1F
100
AcDbEntity
  8
0
  6
Continuous
 62
     7
370
    25
100
AcDbCircle
 10
48.7491201692
 20
-16.7413032836
 30
0.0
 40
1.499999999999996
  0
CIRCLE
  5
C7
330
1F
100
AcDbEntity
  8
0
  6
Continuous
 62
     7
370
    25
100
AcDbCircle
 10
62.6091205212
 20
56.6986970684
 30
0.0
 40
1.500000000001549
  0
LINE
  5
C9
330
1F
100
AcDbEntity
  8
0
  6
Continuous
 62
     7
370
    25
100
AcDbLine
 10
-37.3908794788
 20
-41.8013029316
 30
0.0
 11
-79.5128232321
 21
-41.8013029316
 31
0.0
  0
LINE
  5
CA
330
1F
100
AcDbEntity
  8
0
  6
Continuous
 62
     7
370
    25
100
AcDbLine
 10
-34.3908794788
 20
-20.4053460819
 30
0.0
 11
-34.3908794788
 21
-38.8013029316
 31
0.0
  0
LINE
  5
CB
330
1F
100
AcDbEntity
  8
0
  6
Continuous
 62
     7
370
    25
100
AcDbLine
 10
-79.5128232321
 20
-17.4053460819
 30
0.0
 11
-37.3908794788
 21
-17.4053460819
 31
0.0
  0
LINE
  5
CC
330
1F
100
AcDbEntity
  8
0
  6
Continuous
 62
     7
370
    25
100
AcDbLine
 10
-82.5128232321
 20
-38.8013029316
 30
0.0
 11
-82.5128232321
 21
-20.4053460819
 31
0.0
  0
LINE
  5
CD
330
1F
100
AcDbEntity
  8
0
  6
Continuous
 62
     7
370
    25
100
AcDbLine
 10
-37.8908794788
 20
50.5946539181
 30
0.0
 11
-80.2313368973
 21
50.5946539181
 31
0.0
  0
LINE
  5
CE
330
1F
100
AcDbEntity
  8
0
  6
Continuous
 62
     7
370
    25
100
AcDbLine
 10
-34.8908794788
 20
74.1986970684
 30
0.0
 11
-34.8908794788
 21
53.5946539181
 31
0.0
  0
LINE
  5
CF
330
1F
100
AcDbEntity
  8
0
  6
Continuous
 62
     7
370
    25
100
AcDbLine
 10
-80.2313368973
 20
77.1986970684
 30
0.0
 11
-37.8908794788
 21
77.1986970684
 31
0.0
  0
LINE
  5
D0
330
1F
100
AcDbEntity
  8
0
  6
Continuous
 62
     7
370
    25
100
AcDbLine
 10
-83.2313368973
 20
53.5946539181
 30
0.0
 11
-83.2313368973
 21
74.1986970684
 31
0.0
  0
LINE
  5
D1
330
1F
100
AcDbEntity
  8
0
  6
Continuous
 62
     7
370
    25
100
AcDbLine
 10
-23.8908794788
 20
77.1986970684
 30
0.0
 11
30.6091205212
 21
77.1986970684
 31
0.0
  0
LINE
  5
D2
330
1F
100
AcDbEntity
  8
0
  6
Continuous
 62
     7
370
    25
100
AcDbLine
 10
-26.8908794788
 20
62.1986970684
 30
0.0
 11
-26.8908794788
 21
74.1986970684
 31
0.0
  0
LINE
  5
D3
330
1F
100
AcDbEntity
  8
0
  6
Continuous
 62
     7
370
    25
100
AcDbLine
 10
30.6091205212
 20
59.1986970684
 30
0.0
 11
-23.8908794788
 21
59.1986970684
 31
0.0
  0
LINE
  5
D4
330
1F
100
AcDbEntity
  8
0
  6
Continuous
 62
     7
370
    25
100
AcDbLine
 10
33.6091205212
 20
74.1986970684
 30
0.0
 11
33.6091205212
 21
62.1986970684
 31
0.0
  0
LINE
  5
D5
330
1F
100
AcDbEntity
  8
0
  6
Continuous
 62
     7
370
    25
100
AcDbLine
 10
40.1091205212
 20
-32.9555100877
 30
0.0
 11
36.1091205212
 21
-32.9555100877
 31
0.0
  0
LINE
  5
D6
330
1F
100
AcDbEntity
  8
0
  6
Continuous
 62
     7
370
    25
100
AcDbLine
 10
43.1091205212
 20
-8.7413032837
 30
0.0
 11
43.1091205212
 21
-29.9555100877
 31
0.0
  0
LINE
  5
D7
330
1F
100
AcDbEntity
  8
0
  6
Continuous
 62
     7
370
    25
100
AcDbLine
 10
72.1091205212
 20
-6.7413032837
 30
0.0
 11
45.1091205212
 21
-6.7413032837
 31
0.0
  0
LINE
  5
D8
330
1F
100
AcDbEntity
  8
0
  6
Continuous
 62
     7
370
    25
100
AcDbLine
 10
74.1091205212
 20
-2.0
 30
0.0
 11
74.1091205212
 21
-4.7413032837
 31
0.0
  0
LINE
  5
D9
330
1F
100
AcDbEntity
  8
0
  6
Continuous
 62
     7
370
    25
100
AcDbLine
 10
35.1091205212
 20
0.0
 30
0.0
 11
72.1091205212
 21
0.0
 31
0.0
  0
LINE
  5
DA
330
1F
100
AcDbEntity
  8
0
  6
Continuous
 62
     7
370
    25
100
AcDbLine
 10
33.1091205212
 20
-29.9555100877
 30
0.0
 11
33.1091205212
 21
-2.0
 31
0.0
  0
LINE
  5
DB
330
1F
100
AcDbEntity
  8
0
  6
Continuous
 62
     7
370
    25
100
AcDbLine
 10
-10.5308794788
 20
83.7486970684
 30
0.0
 11
-46.5308794788
 21
83.7486970684
 31
0.0
  0
LINE
  5
DC
330
1F
100
AcDbEntity
  8
0
  6
Continuous
 62
     7
370
    25
100
AcDbLine
 10
-46.5308794788
 20
-46.3513029316
 30
0.0
 11
-10.5308794788
 21
-46.3513029316
 31
0.0
  0
LINE
  5
DD
330
1F
100
AcDbEntity
  8
0
  6
Continuous
 62
     7
370
    25
100
AcDbLine
 10
-10.5308794788
 20
-49.2513029316
 30
0.0
 11
-46.5308794788
 21
-49.2513029316
 31
0.0
  0
LINE
  5
DE
330
1F
100
AcDbEntity
  8
0
  6
Continuous
 62
     7
370
    25
100
AcDbLine
 10
56.6091205212
 20
72.38009907
 30
0.0
 11
56.6091205212
 21
47.38009907
 31
0.0
  0
LINE
  5
DF
330
1F
100
AcDbEntity
  8
0
  6
Continuous
 62
     7
370
    25
100
AcDbLine
 10
53.6091205212
 20
47.38009907
 30
0.0
 11
53.6091205212
 21
72.38009907
 31
0.0
  0
LINE
  5
E0
330
1F
100
AcDbEntity
  8
0
  6
Continuous
 62
     7
370
    25
100
AcDbLine
 10
42.6091205212
 20
72.38009907
 30
0.0
 11
42.6091205212
 21
47.38009907
 31
0.0
  0
LINE
  5
E1
330
1F
100
AcDbEntity
  8
0
  6
Continuous
 62
     7
370
    25
100
AcDbLine
 10
39.6091205212
 20
47.38009907
 30
0.0
 11
39.6091205212
 21
72.38009907
 31
0.0
  0
LINE
  5
E2
330
1F
100
AcDbEntity
  8
0
  6
Continuous
 62
     7
370
    25
100
AcDbLine
 10
53.6091205212
 20
8.38009907
 30
0.0
 11
53.6091205212
 21
33.38009907
 31
0.0
  0
LINE
  5
E3
330
1F
100
AcDbEntity
  8
0
  6
Continuous
 62
     7
370
    25
100
AcDbLine
 10
56.6091205212
 20
33.38009907
 30
0.0
 11
56.6091205212
 21
8.38009907
 31
0.0
  0
LINE
  5
E4
330
1F
100
AcDbEntity
  8
0
  6
Continuous
 62
     7
370
    25
100
AcDbLine
 10
39.6091205212
 20
8.38009907
 30
0.0
 11
39.6091205212
 21
33.38009907
 31
0.0
  0
LINE
  5
E5
330
1F
100
AcDbEntity
  8
0
  6
Continuous
 62
     7
370
    25
100
AcDbLine
 10
42.6091205212
 20
33.38009907
 30
0.0
 11
42.6091205212
 21
8.38009907
 31
0.0
  0
LINE
  5
E6
330
1F
100
AcDbEntity
  8
0
  6
Continuous
 62
     7
370
    25
100
AcDbLine
 10
78.1091205212
 20
81.1986970684
 30
0.0
 11
78.1091205212
 21
-43.8013029316
 31
0.0
  0
LINE
  5
E7
330
1F
100
AcDbEntity
  8
0
  6
Continuous
 62
     7
370
    25
100
AcDbLine
 10
68.1091205212
 20
-53.8013029316
 30
0.0
 11
-110.8908794788
 21
-53.8013029316
 31
0.0
  0
LINE
  5
E8
330
1F
100
AcDbEntity
  8
0
  6
Continuous
 62
     7
370
    25
100
AcDbLine
 10
-120.8908794788
 20
-43.8013029316
 30
0.0
 11
-120.8908794788
 21
81.1986970684
 31
0.0
  0
LINE
  5
E9
330
1F
100
AcDbEntity
  8
0
  6
Continuous
 62
     7
370
    25
100
AcDbLine
 10
-110.8908794788
 20
91.1986970684
 30
0.0
 11
68.1091205212
 21
91.1986970684
 31
0.0
  0
LINE
  5
EA
330
1F
100
AcDbEntity
  8
0
  6
Continuous
 62
     7
370
    25
100
AcDbLine
 10
-46.5308794788
 20
86.6486970684
 30
0.0
 11
-10.5308794788
 21
86.6486970684
 31
0.0
  0
ARC
  5
EB
330
1F
100
AcDbEntity
  8
0
  6
Continuous
 62
     7
370
    25
100
AcDbCircle
 10
-79.5128232321
 20
-38.8013029316
 30
0.0
 40
3.000000000000028
100
AcDbArc
 50
180.0
 51
270.0
  0
ARC
  5
EC
330
1F
100
AcDbEntity
  8
0
  6
Continuous
 62
     7
370
    25
100
AcDbCircle
 10
-37.3908794788
 20
-38.8013029316
 30
0.0
 40
3.0
100
AcDbArc
 50
270.0
 51
0.0
  0
ARC
  5
ED
330
1F
100
AcDbEntity
  8
0
  6
Continuous
 62
     7
370
    25
100
AcDbCircle
 10
-37.3908794788
 20
-20.4053460819
 30
0.0
 40
2.999999999999993
100
AcDbArc
 50
0.0
 51
90.0
  0
ARC
  5
EE
330
1F
100
AcDbEntity
  8
0
  6
Continuous
 62
     7
370
    25
100
AcDbCircle
 10
-79.5128232321
 20
-20.4053460819
 30
0.0
 40
3.000000000000028
100
AcDbArc
 50
90.0
 51
180.0
  0
ARC
  5
EF
330
1F
100
AcDbEntity
  8
0
  6
Continuous
 62
     7
370
    25
100
AcDbCircle
 10
-80.2313368973
 20
53.5946539181
 30
0.0
 40
2.999999999999986
100
AcDbArc
 50
180.0
 51
270.0
  0
ARC
  5
F0
330
1F
100
AcDbEntity
  8
0
  6
Continuous
 62
     7
370
    25
100
AcDbCircle
 10
-37.8908794788
 20
53.5946539181
 30
0.0
 40
3.000000000000014
100
AcDbArc
 50
270.0
 51
0.0
  0
ARC
  5
F1
330
1F
100
AcDbEntity
  8
0
  6
Continuous
 62
     7
370
    25
100
AcDbCircle
 10
-37.8908794788
 20
74.1986970684
 30
0.0
 40
3.000000000000021
100
AcDbArc
 50
0.0
 51
90.0
  0
ARC
  5
F2
330
1F
100
AcDbEntity
  8
0
  6
Continuous
 62
     7
370
    25
100
AcDbCircle
 10
-80.2313368973
 20
74.1986970684
 30
0.0
 40
2.999999999999972
100
AcDbArc
 50
90.0
 51
180.0
  0
ARC
  5
F3
330
1F
100
AcDbEntity
  8
0
  6
Continuous
 62
     7
370
    25
100
AcDbCircle
 10
30.6091205212
 20
74.1986970684
 30
0.0
 40
2.999999999999986
100
AcDbArc
 50
0.0
 51
90.0
  0
ARC
  5
F4
330
1F
100
AcDbEntity
  8
0
  6
Continuous
 62
     7
370
    25
100
AcDbCircle
 10
-23.8908794788
 20
74.1986970684
 30
0.0
 40
3.0
100
AcDbArc
 50
90.0
 51
180.0
  0
ARC
  5
F5
330
1F
100
AcDbEntity
  8
0
  6
Continuous
 62
     7
370
    25
100
AcDbCircle
 10
-23.8908794788
 20
62.1986970684
 30
0.0
 40
3.0
100
AcDbArc
 50
180.0
 51
270.0
  0
ARC
  5
F6
330
1F
100
AcDbEntity
  8
0
  6
Continuous
 62
     7
370
    25
100
AcDbCircle
 10
30.6091205212
 20
62.1986970684
 30
0.0
 40
3.000000000000007
100
AcDbArc
 50
270.0
 51
0.0
  0
ARC
  5
F7
330
1F
100
AcDbEntity
  8
0
  6
Continuous
 62
     7
370
    25
100
AcDbCircle
 10
36.1091205212
 20
-29.9555100877
 30
0.0
 40
2.999999999999989
100
AcDbArc
 50
180.0
 51
270.0
  0
ARC
  5
F8
330
1F
100
AcDbEntity
  8
0
  6
Continuous
 62
     7
370
    25
100
AcDbCircle
 10
40.1091205212
 20
-29.9555100877
 30
0.0
 40
3.0
100
AcDbArc
 50
270.0
 51
0.0
  0
ARC
  5
F9
330
1F
100
AcDbEntity
  8
0
  6
Continuous
 62
     7
370
    25
100
AcDbCircle
 10
45.1091205212
 20
-8.7413032837
 30
0.0
 40
2.0
100
AcDbArc
 50
90.0
 51
180.0
  0
ARC
  5
FA
330
1F
100
AcDbEntity
  8
0
  6
Continuous
 62
     7
370
    25
100
AcDbCircle
 10
72.1091205212
 20
-4.7413032837
 30
0.0
 40
2.000000000000002
100
AcDbArc
 50
270.0
 51
0.0
  0
ARC
  5
FB
330
1F
100
AcDbEntity
  8
0
  6
Continuous
 62
     7
370
    25
100
AcDbCircle
 10
72.1091205212
 20
-2.0
 30
0.0
 40
2.0
100
AcDbArc
 50
0.0
 51
90.0
  0
ARC
  5
FC
330
1F
100
AcDbEntity
  8
0
  6
Continuous
 62
     7
370
    25
100
AcDbCircle
 10
35.1091205212
 20
-2.0
 30
0.0
 40
2.000000000000007
100
AcDbArc
 50
90.0
 51
180.0
  0
ARC
  5
FD
330
1F
100
AcDbEntity
  8
0
  6
Continuous
 62
     7
370
    25
100
AcDbCircle
 10
-10.5308794788
 20
85.1986970684
 30
0.0
 40
1.450000000000131
100
AcDbArc
 50
270.0
 51
90.0
  0
ARC
  5
FE
330
1F
100
AcDbEntity
  8
0
  6
Continuous
 62
     7
370
    25
100
AcDbCircle
 10
-46.5308794788
 20
85.1986970684
 30
0.0
 40
1.450000000000003
100
AcDbArc
 50
90.0
 51
270.0
  0
ARC
  5
FF
330
1F
100
AcDbEntity
  8
0
  6
Continuous
 62
     7
370
    25
100
AcDbCircle
 10
-10.5308794788
 20
-47.8013029316
 30
0.0
 40
1.450000000000131
100
AcDbArc
 50
270.0
 51
90.0
  0
ARC
  5
100
330
1F
100
AcDbEntity
  8
0
  6
Continuous
 62
     7
370
    25
100
AcDbCircle
 10
-46.5308794788
 20
-47.8013029316
 30
0.0
 40
1.450000000000003
100
AcDbArc
 50
90.0
 51
270.0
  0
ARC
  5
101
330
1F
100
AcDbEntity
  8
0
  6
Continuous
 62
     7
370
    25
100
AcDbCircle
 10
55.1091205212
 20
47.38009907
 30
0.0
 40
1.500000000000028
100
AcDbArc
 50
180.0
 51
0.0
  0
ARC
  5
102
330
1F
100
AcDbEntity
  8
0
  6
Continuous
 62
     7
370
    25
100
AcDbCircle
 10
55.1091205212
 20
72.38009907
 30
0.0
 40
1.500000000000021
100
AcDbArc
 50
0.0
 51
180.0
  0
ARC
  5
103
330
1F
100
AcDbEntity
  8
0
  6
Continuous
 62
     7
370
    25
100
AcDbCircle
 10
41.1091205212
 20
47.38009907
 30
0.0
 40
1.499999999999993
100
AcDbArc
 50
180.0
 51
0.0
  0
ARC
  5
104
330
1F
100
AcDbEntity
  8
0
  6
Continuous
 62
     7
370
    25
100
AcDbCircle
 10
41.1091205212
 20
72.38009907
 30
0.0
 40
1.499999999999993
100
AcDbArc
 50
0.0
 51
180.0
  0
ARC
  5
105
330
1F
100
AcDbEntity
  8
0
  6
Continuous
 62
     7
370
    25
100
AcDbCircle
 10
55.1091205212
 20
33.38009907
 30
0.0
 40
1.500000000000028
100
AcDbArc
 50
0.0
 51
180.0
  0
ARC
  5
106
330
1F
100
AcDbEntity
  8
0
  6
Continuous
 62
     7
370
    25
100
AcDbCircle
 10
55.1091205212
 20
8.38009907
 30
0.0
 40
1.500000000000028
100
AcDbArc
 50
180.0
 51
0.0
  0
ARC
  5
107
330
1F
100
AcDbEntity
  8
0
  6
Continuous
 62
     7
370
    25
100
AcDbCircle
 10
41.1091205212
 20
33.38009907
 30
0.0
 40
1.499999999999993
100
AcDbArc
 50
0.0
 51
180.0
  0
ARC
  5
108
330
1F
100
AcDbEntity
  8
0
  6
Continuous
 62
     7
370
    25
100
AcDbCircle
 10
41.1091205212
 20
8.38009907
 30
0.0
 40
1.499999999999993
100
AcDbArc
 50
180.0
 51
0.0
  0
ARC
  5
109
330
1F
100
AcDbEntity
  8
0
  6
Continuous
 62
     7
370
    25
100
AcDbCircle
 10
68.1091205212
 20
-43.8013029316
 30
0.0
 40
10.0
100
AcDbArc
 50
270.0
 51
0.0
  0
ARC
  5
10A
330
1F
100
AcDbEntity
  8
0
  6
Continuous
 62
     7
370
    25
100
AcDbCircle
 10
-110.8908794788
 20
-43.8013029316
 30
0.0
 40
9.999999999999993
100
AcDbArc
 50
180.0
 51
270.0
  0
ARC
  5
10B
330
1F
100
AcDbEntity
  8
0
  6
Continuous
 62
     7
370
    25
100
AcDbCircle
 10
-110.8908794788
 20
81.1986970684
 30
0.0
 40
9.999999999999986
100
AcDbArc
 50
90.0
 51
180.0
  0
ARC
  5
10C
330
1F
100
AcDbEntity
  8
0
  6
Continuous
 62
     7
370
    25
100
AcDbCircle
 10
68.1091205212
 20
81.1986970684
 30
0.0
 40
10.0
100
AcDbArc
 50
0.0
 51
90.0
  0
ENDSEC
  0
SECTION
  2
OBJECTS
  0
DICTIONARY
  5
C
330
0
100
AcDbDictionary
281
     1
  3
ACAD_GROUP
350
D
  3
ACAD_LAYOUT
350
1A
  3
ACAD_MLINESTYLE
350
17
  3
ACAD_PLOTSETTINGS
350
19
  3
ACAD_PLOTSTYLENAME
350
E
  3
ACAD_SCALELIST
350
47
  3
DWGPROPS
350
10D
  0
DICTIONARY
  5
D
102
{ACAD_REACTORS
330
C
102
}
330
C
100
AcDbDictionary
281
     1
  0
DICTIONARY
  5
1A
102
{ACAD_REACTORS
330
C
102
}
330
C
100
AcDbDictionary
281
     1
  3
Layout1
350
1E
  3
Layout2
350
26
  3
Model
350
22
  0
DICTIONARY
  5
17
102
{ACAD_REACTORS
330
C
102
}
330
C
100
AcDbDictionary
281
     1
  3
Standard
350
18
  0
DICTIONARY
  5
19
102
{ACAD_REACTORS
330
C
102
}
330
C
100
AcDbDictionary
281
     1
  0
ACDBDICTIONARYWDFLT
  5
E
102
{ACAD_REACTORS
330
C
102
}
330
C
100
AcDbDictionary
281
     1
  3
Normal
350
F
100
AcDbDictionaryWithDefault
340
F
  0
DICTIONARY
  5
47
102
{ACAD_REACTORS
330
C
102
}
330
C
100
AcDbDictionary
281
     1
  3
A0
350
48
  3
A1
350
49
  3
A2
350
4A
  3
A3
350
4B
  3
A4
350
4C
  3
A5
350
4D
  3
A6
350
4E
  3
A7
350
4F
  3
A8
350
50
  3
A9
350
51
  3
B0
350
52
  3
B1
350
53
  3
B2
350
54
  3
B3
350
55
  3
B4
350
56
  3
B5
350
57
  3
B6
350
58
  0
XRECORD
  5
10D
102
{ACAD_REACTORS
330
C
102
}
330
C
100
AcDbXrecord
280
     1
  1
DWGPROPS COOKIE
  2

  3

  4

  6

  7

  8
LOQ
  9

300
=
301
=
302
=
303
=
304
=
305
=
306
=
307
=
308
=
309
=
 40
0.0
 41
2461106.845737338
 42
2461106.845776158
  1

 90
        0
  0
LAYOUT
  5
1E
102
{ACAD_REACTORS
330
1A
102
}
330
1A
100
AcDbPlotSettings
  1

  2
none_device
  4

  6

 40
0.0
 41
0.0
 42
0.0
 43
0.0
 44
0.0
 45
0.0
 46
0.0
 47
0.0
 48
0.0
 49
0.0
140
0.0
141
0.0
142
1.0
143
1.0
 70
   688
 72
     1
 73
     0
 74
     5
  7

 75
    16
147
1.0
148
0.0
149
0.0
100
AcDbLayout
  1
Layout1
 70
     1
 71
     1
 10
0.0
 20
0.0
 11
420.0
 21
297.0
 12
0.0
 22
0.0
 32
0.0
 14
1.0000000000E+20
 24
1.0000000000E+20
 34
1.0000000000E+20
 15
-1.0000000000E+20
 25
-1.0000000000E+20
 35
-1.0000000000E+20
146
0.0
 13
0.0
 23
0.0
 33
0.0
 16
1.0
 26
0.0
 36
0.0
 17
0.0
 27
1.0
 37
0.0
 76
     0
330
1B
  0
LAYOUT
  5
26
102
{ACAD_REACTORS
330
1A
102
}
330
1A
100
AcDbPlotSettings
  1

  2
none_device
  4

  6

 40
0.0
 41
0.0
 42
0.0
 43
0.0
 44
0.0
 45
0.0
 46
0.0
 47
0.0
 48
0.0
 49
0.0
140
0.0
141
0.0
142
1.0
143
1.0
 70
   688
 72
     1
 73
     0
 74
     5
  7

 75
    16
147
1.0
148
0.0
149
0.0
100
AcDbLayout
  1
Layout2
 70
     1
 71
     2
 10
0.0
 20
0.0
 11
0.0
 21
0.0
 12
0.0
 22
0.0
 32
0.0
 14
0.0
 24
0.0
 34
0.0
 15
0.0
 25
0.0
 35
0.0
146
0.0
 13
0.0
 23
0.0
 33
0.0
 16
1.0
 26
0.0
 36
0.0
 17
0.0
 27
1.0
 37
0.0
 76
     0
330
23
  0
LAYOUT
  5
22
102
{ACAD_REACTORS
330
1A
102
}
330
1A
100
AcDbPlotSettings
  1

  2
none_device
  4
ANSI_A_(11.00_x_8.50_Inches)
  6

 40
6.35
 41
19.05
 42
6.35000508
 43
19.05000254
 44
279.4
 45
215.9
 46
163.0828899681
 47
62.9091856581
 48
0.0
 49
0.0
140
0.0
141
0.0
142
0.0547236181
143
1.0
 70
  1696
 72
     0
 73
     0
 74
     0
  7

 75
     0
147
0.0179189148
148
-1300.4909072572
149
0.0
100
AcDbLayout
  1
Model
 70
     1
 71
     0
 10
0.0
 20
0.0
 11
420.0
 21
297.0
 12
0.0
 22
0.0
 32
0.0
 14
-120.8908794788
 24
-53.8013029316
 34
0.0
 15
78.1091205212
 25
91.1986970684
 35
0.0
146
0.0
 13
0.0
 23
0.0
 33
0.0
 16
1.0
 26
0.0
 36
0.0
 17
0.0
 27
1.0
 37
0.0
 76
     0
330
1F
331
29
  0
MLINESTYLE
  5
18
102
{ACAD_REACTORS
330
17
102
}
330
17
100
AcDbMlineStyle
  2
Standard
 70
     0
  3

 62
   256
 51
90.0
 52
90.0
 71
     2
 49
0.5
 62
   256
  6
BYLAYER
 49
-0.5
 62
   256
  6
BYLAYER
  0
ACDBPLACEHOLDER
  5
F
102
{ACAD_REACTORS
330
E
102
}
330
E
  0
SCALE
  5
48
102
{ACAD_REACTORS
330
47
102
}
330
47
100
AcDbScale
 70
     0
300
1:1
140
1.0
141
1.0
290
     1
  0
SCALE
  5
49
102
{ACAD_REACTORS
330
47
102
}
330
47
100
AcDbScale
 70
     0
300
1:2
140
1.0
141
2.0
290
     0
  0
SCALE
  5
4A
102
{ACAD_REACTORS
330
47
102
}
330
47
100
AcDbScale
 70
     0
300
1:4
140
1.0
141
4.0
290
     0
  0
SCALE
  5
4B
102
{ACAD_REACTORS
330
47
102
}
330
47
100
AcDbScale
 70
     0
300
1:5
140
1.0
141
5.0
290
     0
  0
SCALE
  5
4C
102
{ACAD_REACTORS
330
47
102
}
330
47
100
AcDbScale
 70
     0
300
1:8
140
1.0
141
8.0
290
     0
  0
SCALE
  5
4D
102
{ACAD_REACTORS
330
47
102
}
330
47
100
AcDbScale
 70
     0
300
1:10
140
1.0
141
10.0
290
     0
  0
SCALE
  5
4E
102
{ACAD_REACTORS
330
47
102
}
330
47
100
AcDbScale
 70
     0
300
1:16
140
1.0
141
16.0
290
     0
  0
SCALE
  5
4F
102
{ACAD_REACTORS
330
47
102
}
330
47
100
AcDbScale
 70
     0
300
1:20
140
1.0
141
20.0
290
     0
  0
SCALE
  5
50
102
{ACAD_REACTORS
330
47
102
}
330
47
100
AcDbScale
 70
     0
300
1:30
140
1.0
141
30.0
290
     0
  0
SCALE
  5
51
102
{ACAD_REACTORS
330
47
102
}
330
47
100
AcDbScale
 70
     0
300
1:40
140
1.0
141
40.0
290
     0
  0
SCALE
  5
52
102
{ACAD_REACTORS
330
47
102
}
330
47
100
AcDbScale
 70
     0
300
1:50
140
1.0
141
50.0
290
     0
  0
SCALE
  5
53
102
{ACAD_REACTORS
330
47
102
}
330
47
100
AcDbScale
 70
     0
300
1:100
140
1.0
141
100.0
290
     0
  0
SCALE
  5
54
102
{ACAD_REACTORS
330
47
102
}
330
47
100
AcDbScale
 70
     0
300
2:1
140
2.0
141
1.0
290
     0
  0
SCALE
  5
55
102
{ACAD_REACTORS
330
47
102
}
330
47
100
AcDbScale
 70
     0
300
4:1
140
4.0
141
1.0
290
     0
  0
SCALE
  5
56
102
{ACAD_REACTORS
330
47
102
}
330
47
100
AcDbScale
 70
     0
300
8:1
140
8.0
141
1.0
290
     0
  0
SCALE
  5
57
102
{ACAD_REACTORS
330
47
102
}
330
47
100
AcDbScale
 70
     0
300
10:1
140
10.0
141
1.0
290
     0
  0
SCALE
  5
58
102
{ACAD_REACTORS
330
47
102
}
330
47
100
AcDbScale
 70
     0
300
100:1
140
100.0
141
1.0
290
     0
  0
ENDSEC
  0
EOF
